<svg width="267" height="76" viewBox="0 0 267 76" fill="none" xmlns="http://www.w3.org/2000/svg">
<path d="M62.9249 13.0919C56.5468 6.71378 47.735 2.76943 38.0168 2.76943C28.2986 2.76943 19.4867 6.71378 13.1087 13.0919C6.73057 19.47 2.78622 28.2818 2.78622 38C2.78622 47.7182 6.73057 56.53 13.1087 62.9081C19.4867 69.2862 28.2986 73.2306 38.0168 73.2306C47.735 73.2306 56.5468 69.2862 62.9249 62.9081C69.303 56.53 73.2474 47.7182 73.2474 38C73.2474 28.2818 69.303 19.47 62.9249 13.0919ZM38.0168 0C48.5071 0 58.0239 4.26325 64.8887 11.1281C71.7703 18.0097 76.0168 27.5097 76.0168 38C76.0168 48.4903 71.7703 58.0071 64.8887 64.8719C58.0071 71.7535 48.5071 76 38.0168 76C27.5265 76 18.0265 71.7535 11.1449 64.8719C4.24647 58.0071 0 48.5071 0 38.0168C0 27.5265 4.24647 18.0097 11.1281 11.1281C18.0097 4.26325 27.5097 0 38.0168 0Z" fill="#D9B96B"/>
<path fill-rule="evenodd" clip-rule="evenodd" d="M26.9054 53.4586H4.80028C4.3471 52.5018 3.94427 51.5283 3.5918 50.5213L10.3559 40.501C10.4399 40.3835 10.5909 40.3499 10.7084 40.417C16.3144 43.6396 21.4505 47.4161 25.9823 51.8808C26.3515 52.2501 26.7376 52.6193 27.09 53.0054C27.174 53.0893 27.1907 53.19 27.1404 53.2907C27.09 53.3914 27.0061 53.4586 26.8886 53.4586" fill="#D9B96B"/>
<path fill-rule="evenodd" clip-rule="evenodd" d="M65.6775 40.501L72.4417 50.5213C72.0724 51.5283 71.6696 52.5018 71.2332 53.4586H49.1281C49.0106 53.4586 48.9266 53.3914 48.8763 53.2907C48.8259 53.19 48.8595 53.0725 48.9266 53.0054C53.727 48.054 59.2491 43.9082 65.3083 40.417C65.4258 40.3499 65.5936 40.3835 65.6607 40.501" fill="#D9B96B"/>
<path fill-rule="evenodd" clip-rule="evenodd" d="M39.2925 1.40985L64.5364 38.8056C64.6035 38.9063 64.6035 39.0406 64.5028 39.1413C64.4189 39.2252 64.2846 39.2588 64.1671 39.1917C59.0143 36.1201 54.2643 32.5618 50.0514 28.3993C45.3853 23.8171 41.3235 18.5132 38.0169 12.3533C31.706 24.0856 22.7263 32.7296 11.8667 39.1917C11.766 39.2588 11.615 39.242 11.5311 39.1413C11.4471 39.0406 11.4303 38.9063 11.4975 38.8056L36.7413 1.40985C37.1609 1.40985 37.5973 1.39307 38.0169 1.39307C38.4365 1.39307 38.8729 1.39307 39.2925 1.40985Z" fill="#D9B96B"/>
<path fill-rule="evenodd" clip-rule="evenodd" d="M48.1213 40.1316C46.0064 41.3233 44.093 42.7332 42.381 44.3948C40.6857 46.0565 39.2087 47.9867 38.0002 50.2358C36.7918 48.0035 35.3147 46.0733 33.6195 44.3948C31.9243 42.7332 29.9941 41.3233 27.896 40.1316C32.1089 37.7482 35.6001 34.5088 38.0002 30.0273C39.2087 32.2597 40.669 34.1899 42.381 35.8683C44.0762 37.53 46.0064 38.9399 48.1213 40.1316Z" fill="#E5262B"/>
<path d="M32.327 60.2058V65.3083H31.5046V61.1625L30.4807 61.4982L30.2793 60.7765L32.0417 60.2058H32.327Z" fill="#D9B96B"/>
<path d="M35.2639 62.8911C35.5492 62.8911 35.7842 62.7904 35.9688 62.589C36.1535 62.3876 36.2542 62.1526 36.2542 61.8673C36.2542 61.582 36.1535 61.3302 35.9688 61.1456C35.7842 60.9441 35.5492 60.8602 35.2639 60.8602C34.9786 60.8602 34.7436 60.9609 34.5422 61.1456C34.3407 61.347 34.2568 61.582 34.2568 61.8673C34.2568 62.1526 34.3575 62.4044 34.5422 62.589C34.7436 62.7904 34.9786 62.8744 35.2639 62.8744M35.2639 60.1049C35.5828 60.1049 35.8849 60.1888 36.1703 60.3399C36.4388 60.491 36.6738 60.7092 36.8248 60.9777C36.9927 61.2463 37.0766 61.5484 37.0766 61.8841C37.0766 62.0855 37.043 62.2701 36.9927 62.438C36.9256 62.6058 36.8584 62.7736 36.7745 62.9079C36.6906 63.0422 36.5563 63.2436 36.3717 63.4954L35.096 65.3081H34.1225L35.3478 63.5625C35.3478 63.5625 35.2135 63.5793 35.1296 63.5793C34.8443 63.5793 34.5589 63.5122 34.3072 63.3611C34.0554 63.21 33.8372 63.0086 33.6862 62.7401C33.5351 62.4715 33.4512 62.1862 33.4512 61.8673C33.4512 61.5484 33.5351 61.2295 33.7029 60.9609C33.8708 60.6924 34.089 60.4742 34.3575 60.3231C34.6261 60.1721 34.9282 60.0881 35.2639 60.0881V60.1049Z" fill="#D9B96B"/>
<path d="M39.5779 62.8911C39.8632 62.8911 40.0982 62.7904 40.2828 62.589C40.4674 62.3876 40.5681 62.1526 40.5681 61.8673C40.5681 61.582 40.4674 61.3302 40.2828 61.1456C40.0982 60.9441 39.8632 60.8602 39.5779 60.8602C39.2925 60.8602 39.0575 60.9609 38.8561 61.1456C38.6547 61.347 38.5708 61.582 38.5708 61.8673C38.5708 62.1526 38.6715 62.4044 38.8561 62.589C39.0575 62.7904 39.2925 62.8744 39.5779 62.8744M39.5779 60.1049C39.8968 60.1049 40.1989 60.1888 40.4842 60.3399C40.7528 60.491 40.9878 60.7092 41.1388 60.9777C41.3067 61.2463 41.3906 61.5484 41.3906 61.8841C41.3906 62.0855 41.357 62.2701 41.3067 62.438C41.2395 62.6058 41.1724 62.7736 41.0885 62.9079C41.0045 63.0422 40.8703 63.2436 40.6856 63.4954L39.41 65.3081H38.4365L39.6618 63.5625C39.6618 63.5625 39.5275 63.5793 39.4436 63.5793C39.1582 63.5793 38.8729 63.5122 38.6211 63.3611C38.3694 63.21 38.1512 63.0086 38.0001 62.7401C37.8491 62.4715 37.7651 62.1862 37.7651 61.8673C37.7651 61.5484 37.8491 61.2295 38.0169 60.9609C38.1847 60.6924 38.4029 60.4742 38.6715 60.3231C38.9401 60.1721 39.2422 60.0881 39.5779 60.0881V60.1049Z" fill="#D9B96B"/>
<path d="M45.7547 64.6033V65.3083H42.0957V65.1237L43.9252 63.1599C44.2105 62.8578 44.412 62.606 44.5462 62.4046C44.6805 62.2032 44.7476 61.985 44.7476 61.7668C44.7476 61.515 44.6637 61.2968 44.5127 61.1289C44.3616 60.9611 44.1434 60.8772 43.8916 60.8772C43.6399 60.8772 43.4217 60.9611 43.2706 61.1457C43.1028 61.3304 43.0356 61.5486 43.0356 61.8003C43.0356 61.901 43.0356 62.0353 43.0692 62.2032H42.2468C42.2132 62.0689 42.1964 61.9178 42.1964 61.7668C42.1964 61.4814 42.2635 61.2297 42.3978 60.9779C42.5321 60.7261 42.7335 60.5247 43.0021 60.3737C43.2706 60.2226 43.5727 60.1387 43.9084 60.1387C44.2273 60.1387 44.5294 60.2058 44.7812 60.3401C45.033 60.4744 45.2344 60.6758 45.3855 60.9108C45.5365 61.1457 45.6037 61.4143 45.6037 61.7164C45.6037 62.0689 45.5197 62.371 45.3351 62.6731C45.1505 62.9585 44.8819 63.2941 44.5295 63.6634L43.6231 64.6201H45.7883L45.7547 64.6033Z" fill="#D9B96B"/>
<path fill-rule="evenodd" clip-rule="evenodd" d="M25.3951 61.6829C25.9658 61.6829 26.4358 62.1528 26.4358 62.7235C26.4358 63.2942 25.9658 63.7641 25.3951 63.7641C24.8245 63.7641 24.3545 63.2942 24.3545 62.7235C24.3545 62.1528 24.8245 61.6829 25.3951 61.6829Z" fill="#D9B96B"/>
<path fill-rule="evenodd" clip-rule="evenodd" d="M50.6217 61.6829C51.1924 61.6829 51.6623 62.1528 51.6623 62.7235C51.6623 63.2942 51.1924 63.7641 50.6217 63.7641C50.051 63.7641 49.5811 63.2942 49.5811 62.7235C49.5811 62.1528 50.051 61.6829 50.6217 61.6829Z" fill="#D9B96B"/>
<path d="M115.074 22.9443L109.619 10.3056L104.215 22.9443H115.074ZM116.853 27.1572H102.402L99.5486 33.8374H94.0098L107.018 4.93457H112.305L125.346 33.8374H119.724L116.837 27.1572H116.853Z" fill="#D9B96B"/>
<path d="M140.67 20.9635C143.003 20.9635 144.783 20.46 145.991 19.4697C147.2 18.4794 147.804 17.0695 147.804 15.2233C147.804 13.377 147.2 11.9671 145.991 10.9768C144.783 9.98651 143.003 9.48297 140.67 9.48297H134.393V20.9635H140.67ZM140.922 4.95117C143.423 4.95117 145.605 5.37078 147.468 6.19322C149.331 7.01566 150.758 8.20736 151.748 9.75152C152.738 11.2957 153.242 13.1252 153.242 15.24C153.242 17.3549 152.738 19.1508 151.748 20.7118C150.758 22.2727 149.331 23.4644 147.468 24.2869C145.605 25.1093 143.423 25.5289 140.922 25.5289H134.393V33.8708H129.022V4.95117H140.905H140.922Z" fill="#D9B96B"/>
<path d="M172.662 22.9443L167.207 10.3056L161.802 22.9443H172.662ZM174.424 27.1572H159.973L157.119 33.8374H151.581L164.589 4.93457H169.876L182.917 33.8374H177.294L174.407 27.1572H174.424Z" fill="#D9B96B"/>
<path d="M197.771 20.9635C200.104 20.9635 201.883 20.46 203.092 19.4697C204.3 18.4794 204.905 17.0695 204.905 15.2233C204.905 13.377 204.3 11.9671 203.092 10.9768C201.883 9.98651 200.104 9.48297 197.771 9.48297H191.494V20.9635H197.771ZM198.006 4.95117C200.507 4.95117 202.689 5.37078 204.552 6.19322C206.415 7.01566 207.842 8.20736 208.832 9.75152C209.822 11.2957 210.326 13.1252 210.326 15.24C210.326 17.3549 209.822 19.1508 208.832 20.7118C207.842 22.2727 206.415 23.4644 204.552 24.2869C202.689 25.1093 200.507 25.5289 198.006 25.5289H191.477V33.8708H186.106V4.95117H197.989H198.006Z" fill="#D9B96B"/>
<path d="M223.687 21.7524L219.104 26.4521V33.8372H213.733V4.95117H219.104V19.7718L233.388 4.95117H239.414L227.278 17.8584L240.152 33.8372H233.875L223.687 21.7524Z" fill="#D9B96B"/>
<path d="M261.552 19.0671H266.638V30.5813C265.144 31.773 263.415 32.6793 261.435 33.3004C259.454 33.9382 257.423 34.2571 255.325 34.2571C252.388 34.2571 249.719 33.6193 247.352 32.3436C244.986 31.068 243.123 29.2889 241.78 27.0398C240.437 24.7739 239.749 22.2394 239.749 19.4028C239.749 16.5663 240.42 14.015 241.78 11.7659C243.123 9.51678 244.986 7.73763 247.369 6.46201C249.753 5.18639 252.421 4.54858 255.392 4.54858C257.809 4.54858 260.025 4.95141 262.005 5.74028C263.986 6.54593 265.647 7.70406 267.007 9.24823L263.617 12.5548C261.418 10.356 258.766 9.24823 255.644 9.24823C253.613 9.24823 251.8 9.66784 250.223 10.5238C248.645 11.3799 247.403 12.5716 246.513 14.1157C245.624 15.6599 245.17 17.4223 245.17 19.4028C245.17 21.3834 245.624 23.0618 246.513 24.606C247.403 26.1502 248.645 27.3587 250.223 28.2314C251.8 29.1042 253.596 29.5574 255.61 29.5574C257.859 29.5574 259.857 29.0539 261.552 28.0636V24.136H255.644V19.0504H261.552V19.0671Z" fill="#D9B96B"/>
<path d="M264.808 49.9504C264.389 49.9504 264.003 49.8496 263.65 49.6482C263.298 49.4468 263.029 49.1783 262.828 48.8258C262.626 48.4733 262.526 48.1041 262.526 47.6845C262.526 47.2648 262.626 46.8788 262.828 46.5431C263.029 46.2074 263.314 45.9221 263.667 45.7207C264.019 45.5193 264.405 45.4186 264.825 45.4186C265.245 45.4186 265.58 45.5025 265.899 45.6871C266.218 45.8717 266.47 46.1067 266.655 46.4256L266 46.9292C265.681 46.4928 265.295 46.2746 264.842 46.2746C264.59 46.2746 264.355 46.3417 264.154 46.4592C263.952 46.5767 263.784 46.7445 263.667 46.9627C263.549 47.1809 263.482 47.4159 263.482 47.6677C263.482 47.9194 263.549 48.1712 263.667 48.3894C263.784 48.6076 263.952 48.7754 264.154 48.8929C264.355 49.0104 264.59 49.0776 264.842 49.0776C265.295 49.0776 265.681 48.8594 266 48.423L266.655 48.9265C266.453 49.2454 266.201 49.4804 265.899 49.665C265.58 49.8496 265.228 49.9336 264.842 49.9336M260.998 44.529C260.814 44.529 260.679 44.4618 260.545 44.3443C260.428 44.2269 260.36 44.0758 260.36 43.908C260.36 43.7401 260.428 43.589 260.545 43.4716C260.663 43.3541 260.814 43.2869 260.998 43.2869C261.183 43.2869 261.317 43.3541 261.435 43.4716C261.552 43.589 261.619 43.7401 261.619 43.908C261.619 44.0758 261.552 44.2269 261.435 44.3443C261.317 44.4618 261.166 44.529 260.998 44.529ZM260.528 45.5193H261.451V49.8496H260.528V45.5193ZM258.262 43.2366H259.186V49.8496H258.262V43.2366ZM254.922 49.1111C255.174 49.1111 255.392 49.044 255.594 48.9265C255.795 48.809 255.963 48.6412 256.064 48.423C256.181 48.2048 256.231 47.9698 256.231 47.6845C256.231 47.3991 256.181 47.1641 256.064 46.9459C255.946 46.7277 255.795 46.5599 255.594 46.4424C255.392 46.3249 255.174 46.2578 254.922 46.2578C254.687 46.2578 254.486 46.3081 254.284 46.4088C254.083 46.5095 253.932 46.6774 253.798 46.8788C253.68 47.097 253.613 47.3488 253.613 47.6677C253.613 47.9866 253.68 48.2383 253.798 48.4565C253.915 48.6747 254.083 48.8258 254.284 48.9265C254.486 49.0272 254.687 49.0776 254.922 49.0776V49.1111ZM255.073 45.4353C255.476 45.4353 255.845 45.536 256.164 45.7375C256.483 45.9389 256.735 46.2074 256.92 46.5599C257.104 46.9124 257.188 47.2984 257.188 47.718C257.188 48.1376 257.104 48.5237 256.92 48.8762C256.735 49.2286 256.483 49.4972 256.164 49.6818C255.845 49.8832 255.476 49.9839 255.073 49.9839C254.754 49.9839 254.469 49.9168 254.201 49.7993C253.932 49.6818 253.714 49.514 253.563 49.279V49.8832H252.707V43.2701H253.63V46.0899C253.798 45.8885 253.999 45.7375 254.251 45.62C254.503 45.5193 254.771 45.4521 255.073 45.4521V45.4353ZM249.518 49.9504C249.165 49.9504 248.829 49.8664 248.544 49.7154C248.259 49.5643 248.024 49.3293 247.873 49.044C247.705 48.7587 247.621 48.423 247.621 48.0369V45.5193H248.544V48.1041C248.544 48.4062 248.628 48.6412 248.829 48.8258C249.014 49.0104 249.249 49.0943 249.534 49.0943C249.82 49.0943 250.038 49.0104 250.206 48.8258C250.39 48.6412 250.474 48.4062 250.474 48.1041V45.5193H251.398V48.0369C251.398 48.423 251.314 48.7587 251.146 49.044C250.978 49.3293 250.76 49.5643 250.474 49.7154C250.189 49.8664 249.87 49.9504 249.518 49.9504ZM244.701 46.7781C245.036 46.7781 245.288 46.6942 245.456 46.5095C245.64 46.3417 245.724 46.1067 245.724 45.8214C245.724 45.536 245.64 45.3011 245.456 45.1164C245.271 44.9486 245.019 44.8479 244.701 44.8479H243.526V46.7613H244.701V46.7781ZM242.602 44.0422H244.734C245.12 44.0422 245.473 44.1094 245.758 44.2604C246.06 44.4115 246.295 44.6129 246.446 44.8982C246.614 45.1668 246.698 45.4857 246.698 45.8214C246.698 46.1571 246.614 46.476 246.446 46.7445C246.278 47.0131 246.043 47.2313 245.758 47.3823C245.456 47.5334 245.12 47.6173 244.734 47.6173H243.542V49.8664H242.602V44.0422ZM239.43 43.9919C239.145 43.9919 238.943 44.0422 238.792 44.1597C238.658 44.2772 238.574 44.4618 238.574 44.7472V45.536H239.598V46.3417H238.574V49.8664H237.651V46.3417H237.03V45.536H237.651V44.6633C237.651 44.1597 237.785 43.7737 238.071 43.5387C238.339 43.2869 238.725 43.1694 239.195 43.1694C239.43 43.1694 239.632 43.203 239.799 43.2534V44.0422C239.665 44.0254 239.531 44.0087 239.43 44.0087V43.9919ZM234.143 49.0943C234.395 49.0943 234.63 49.0272 234.831 48.9097C235.033 48.7922 235.201 48.6244 235.318 48.4062C235.435 48.188 235.503 47.953 235.503 47.7012C235.503 47.4495 235.452 47.1977 235.318 46.9795C235.201 46.7613 235.033 46.5935 234.831 46.476C234.63 46.3585 234.395 46.2913 234.16 46.2913C233.925 46.2913 233.673 46.3585 233.472 46.476C233.27 46.5935 233.102 46.7781 232.985 46.9795C232.867 47.1977 232.8 47.4327 232.8 47.7012C232.8 47.9698 232.867 48.2048 232.985 48.423C233.102 48.6412 233.27 48.809 233.472 48.9265C233.673 49.044 233.908 49.1111 234.16 49.1111L234.143 49.0943ZM234.143 49.9504C233.723 49.9504 233.337 49.8496 232.985 49.6482C232.632 49.4468 232.364 49.1783 232.163 48.8258C231.961 48.4733 231.86 48.1041 231.86 47.6845C231.86 47.2648 231.961 46.8788 232.163 46.5431C232.364 46.2074 232.649 45.9221 232.985 45.7207C233.337 45.5193 233.723 45.4186 234.143 45.4186C234.563 45.4186 234.949 45.5193 235.301 45.7207C235.654 45.9221 235.939 46.1906 236.14 46.5431C236.342 46.8956 236.443 47.2648 236.443 47.6845C236.443 48.1041 236.342 48.4733 236.14 48.8258C235.939 49.1783 235.654 49.4468 235.301 49.6482C234.949 49.8496 234.563 49.9504 234.143 49.9504ZM228.822 45.5193L226.708 50.3364C226.523 50.756 226.305 51.0413 226.053 51.2428C225.801 51.4274 225.482 51.5281 225.113 51.5281C224.878 51.5281 224.626 51.4945 224.391 51.4442V50.6553C224.66 50.6721 224.828 50.6889 224.895 50.6889C225.113 50.6889 225.298 50.6385 225.449 50.5546C225.6 50.4707 225.734 50.3028 225.835 50.0511L226.003 49.6482L224.274 45.5193H225.264L226.506 48.6747L227.782 45.5193H228.772H228.822ZM221.924 45.4353C222.428 45.4353 222.814 45.5864 223.099 45.9053C223.384 46.2242 223.519 46.6438 223.519 47.1474V49.8496H222.579V47.2816C222.579 46.9795 222.495 46.7277 222.344 46.5431C222.176 46.3585 221.958 46.2746 221.689 46.2746C221.42 46.2746 221.185 46.3585 221.001 46.5431C220.816 46.7277 220.732 46.9627 220.732 47.2313V49.8496H219.809V47.2816C219.809 46.9795 219.725 46.7445 219.557 46.5599C219.39 46.3753 219.171 46.2746 218.903 46.2746C218.634 46.2746 218.399 46.3585 218.215 46.5599C218.047 46.7445 217.946 46.9795 217.946 47.2816V49.8496H217.023V45.5193H217.879V45.9221C218.03 45.771 218.215 45.6367 218.433 45.5528C218.651 45.4689 218.886 45.4186 219.138 45.4186C219.44 45.4186 219.692 45.4857 219.927 45.6032C220.145 45.7207 220.329 45.8885 220.464 46.1067C220.615 45.9053 220.833 45.7375 221.085 45.62C221.337 45.5025 221.622 45.4353 221.924 45.4353ZM213.935 46.2074C213.632 46.2074 213.364 46.3081 213.129 46.4928C212.911 46.6774 212.76 46.9459 212.676 47.2648H215.026C215.026 46.9292 214.908 46.6774 214.69 46.4928C214.472 46.3081 214.22 46.2074 213.918 46.2074H213.935ZM215.898 48.0034H212.676C212.743 48.3558 212.894 48.6412 213.146 48.8426C213.398 49.044 213.716 49.1447 214.086 49.1447C214.539 49.1447 214.958 48.9769 215.345 48.6412L215.781 49.279C215.294 49.7489 214.707 49.9839 214.052 49.9839C213.616 49.9839 213.213 49.8832 212.86 49.6818C212.508 49.4804 212.223 49.2118 212.021 48.8762C211.82 48.5405 211.719 48.1544 211.719 47.718C211.719 47.2816 211.82 46.9124 212.021 46.5767C212.223 46.2242 212.491 45.9557 212.827 45.7542C213.163 45.5528 213.549 45.4521 213.951 45.4521C214.337 45.4521 214.673 45.536 214.975 45.7039C215.277 45.8717 215.512 46.1067 215.697 46.4088C215.865 46.711 215.949 47.0466 215.949 47.4159C215.949 47.6005 215.932 47.7852 215.882 48.0034H215.898ZM208.446 49.1111C208.681 49.1111 208.882 49.0608 209.084 48.9601C209.285 48.8594 209.436 48.7083 209.571 48.4901C209.688 48.2719 209.755 48.0201 209.755 47.7012C209.755 47.3823 209.688 47.1306 209.571 46.9124C209.453 46.6942 209.285 46.5431 209.084 46.4424C208.882 46.3417 208.664 46.2913 208.446 46.2913C208.194 46.2913 207.976 46.3585 207.775 46.476C207.573 46.5935 207.405 46.7613 207.288 46.9795C207.17 47.1977 207.12 47.4327 207.12 47.718C207.12 48.0034 207.17 48.2383 207.288 48.4565C207.405 48.6747 207.557 48.8426 207.758 48.9601C207.959 49.0776 208.194 49.1447 208.446 49.1447V49.1111ZM210.662 43.2366V49.8496H209.806V49.2286C209.655 49.4468 209.436 49.6314 209.168 49.7489C208.899 49.8832 208.614 49.9336 208.278 49.9336C207.875 49.9336 207.506 49.8329 207.187 49.6314C206.868 49.43 206.617 49.1615 206.432 48.8258C206.247 48.4901 206.163 48.1041 206.163 47.6677C206.163 47.2313 206.247 46.862 206.432 46.5095C206.617 46.1571 206.868 45.8885 207.187 45.6871C207.506 45.4857 207.875 45.385 208.278 45.385C208.58 45.385 208.849 45.4353 209.101 45.5528C209.352 45.6535 209.554 45.8214 209.722 46.0228V43.203H210.662V43.2366ZM203.109 49.2454C203.428 49.2454 203.679 49.1447 203.898 48.9601C204.116 48.7587 204.216 48.5237 204.216 48.2216V48.1376H203.109C202.857 48.1376 202.672 48.188 202.538 48.2719C202.404 48.3558 202.337 48.4901 202.337 48.6747C202.337 48.8594 202.404 48.9936 202.555 49.0943C202.689 49.1951 202.874 49.2454 203.109 49.2454ZM203.377 45.4353C203.914 45.4353 204.334 45.5864 204.67 45.9053C204.989 46.2242 205.156 46.6606 205.156 47.2481V49.8664H204.3V49.3797C204.149 49.5643 203.948 49.7154 203.713 49.8161C203.478 49.9168 203.209 49.9671 202.924 49.9671C202.471 49.9671 202.102 49.8496 201.833 49.6314C201.564 49.3965 201.413 49.0943 201.413 48.7251C201.413 48.3558 201.564 48.0537 201.85 47.8187C202.135 47.6005 202.521 47.483 203.008 47.483H204.233V47.1977C204.233 46.8956 204.149 46.6606 203.998 46.5095C203.83 46.3585 203.612 46.2746 203.31 46.2746C203.075 46.2746 202.857 46.3249 202.672 46.4256C202.488 46.5263 202.303 46.6942 202.118 46.9124L201.581 46.3585C201.799 46.0396 202.068 45.8214 202.37 45.6535C202.689 45.5025 203.025 45.4186 203.394 45.4186L203.377 45.4353ZM198.879 49.9504C198.459 49.9504 198.073 49.8496 197.721 49.6482C197.368 49.4468 197.1 49.1783 196.898 48.8258C196.697 48.4733 196.596 48.1041 196.596 47.6845C196.596 47.2648 196.697 46.8788 196.898 46.5431C197.1 46.2074 197.385 45.9221 197.738 45.7207C198.09 45.5193 198.476 45.4186 198.896 45.4186C199.315 45.4186 199.651 45.5025 199.97 45.6871C200.289 45.8717 200.541 46.1067 200.725 46.4256L200.071 46.9292C199.752 46.4928 199.366 46.2746 198.913 46.2746C198.661 46.2746 198.426 46.3417 198.208 46.4592C198.006 46.5767 197.838 46.7445 197.721 46.9627C197.603 47.1809 197.553 47.4159 197.553 47.6677C197.553 47.9194 197.62 48.1712 197.721 48.3894C197.838 48.6076 198.006 48.7754 198.208 48.8929C198.409 49.0104 198.644 49.0776 198.913 49.0776C199.366 49.0776 199.752 48.8594 200.071 48.423L200.725 48.9265C200.524 49.2454 200.272 49.4804 199.97 49.665C199.651 49.8496 199.299 49.9336 198.913 49.9336L198.879 49.9504ZM193.407 45.6703L192.434 48.0705H194.381L193.407 45.6703ZM194.716 48.8929H192.098L191.678 49.8664H190.688L193.256 43.9583H193.575L196.143 49.8664H195.136L194.716 48.8929ZM187.852 45.5193L185.77 49.9504H185.451L183.353 45.5193H184.344L185.619 48.3894L186.878 45.5193H187.868H187.852ZM180.668 49.0943C180.92 49.0943 181.155 49.0272 181.356 48.9097C181.557 48.7922 181.725 48.6244 181.843 48.4062C181.96 48.188 182.027 47.953 182.027 47.7012C182.027 47.4495 181.977 47.1977 181.843 46.9795C181.725 46.7613 181.557 46.5935 181.356 46.476C181.155 46.3585 180.92 46.2913 180.685 46.2913C180.45 46.2913 180.198 46.3585 179.996 46.476C179.795 46.5935 179.627 46.7781 179.51 46.9795C179.392 47.1977 179.342 47.4327 179.342 47.7012C179.342 47.9698 179.409 48.2048 179.51 48.423C179.627 48.6412 179.795 48.809 179.996 48.9265C180.198 49.044 180.433 49.1111 180.685 49.1111L180.668 49.0943ZM180.668 49.9504C180.248 49.9504 179.862 49.8496 179.51 49.6482C179.157 49.4468 178.889 49.1783 178.687 48.8258C178.486 48.4733 178.385 48.1041 178.385 47.6845C178.385 47.2648 178.486 46.8788 178.687 46.5431C178.889 46.2074 179.174 45.9221 179.51 45.7207C179.862 45.5193 180.248 45.4186 180.668 45.4186C181.087 45.4186 181.473 45.5193 181.826 45.7207C182.178 45.9221 182.464 46.1906 182.665 46.5431C182.867 46.8956 182.967 47.2648 182.967 47.6845C182.967 48.1041 182.867 48.4733 182.665 48.8258C182.464 49.1783 182.178 49.4468 181.826 49.6482C181.473 49.8496 181.087 49.9504 180.668 49.9504ZM175.75 45.4353C176.254 45.4353 176.656 45.5864 176.942 45.9053C177.227 46.2242 177.378 46.6438 177.378 47.1474V49.8496H176.455V47.2648C176.455 46.9627 176.371 46.7277 176.203 46.5431C176.035 46.3585 175.8 46.2578 175.515 46.2578C175.23 46.2578 174.995 46.3585 174.81 46.5431C174.625 46.7277 174.525 46.9795 174.525 47.2648V49.8496H173.602V45.5193H174.458V45.9389C174.793 45.5864 175.213 45.4186 175.75 45.4186V45.4353ZM170.245 49.2454C170.564 49.2454 170.815 49.1447 171.034 48.9601C171.252 48.7587 171.352 48.5237 171.352 48.2216V48.1376H170.245C169.993 48.1376 169.808 48.188 169.674 48.2719C169.54 48.3558 169.473 48.4901 169.473 48.6747C169.473 48.8594 169.54 48.9936 169.691 49.0943C169.825 49.1951 170.01 49.2454 170.245 49.2454ZM170.53 45.4353C171.067 45.4353 171.487 45.5864 171.822 45.9053C172.141 46.2242 172.309 46.6606 172.309 47.2481V49.8664H171.453V49.3797C171.302 49.5643 171.101 49.7154 170.866 49.8161C170.631 49.9168 170.362 49.9671 170.077 49.9671C169.624 49.9671 169.254 49.8496 168.986 49.6314C168.717 49.3965 168.566 49.0943 168.566 48.7251C168.566 48.3558 168.717 48.0537 169.003 47.8187C169.288 47.6005 169.674 47.483 170.161 47.483H171.386V47.1977C171.386 46.8956 171.302 46.6606 171.151 46.5095C170.983 46.3585 170.765 46.2746 170.463 46.2746C170.228 46.2746 170.01 46.3249 169.825 46.4256C169.64 46.5263 169.456 46.6942 169.271 46.9124L168.734 46.3585C168.952 46.0396 169.221 45.8214 169.523 45.6535C169.842 45.5025 170.178 45.4186 170.547 45.4186L170.53 45.4353ZM165.981 45.4353C166.485 45.4353 166.871 45.5864 167.156 45.9053C167.442 46.2242 167.576 46.6438 167.576 47.1474V49.8496H166.636V47.2816C166.636 46.9795 166.552 46.7277 166.401 46.5431C166.233 46.3585 166.015 46.2746 165.746 46.2746C165.478 46.2746 165.243 46.3585 165.058 46.5431C164.874 46.7277 164.79 46.9627 164.79 47.2313V49.8496H163.867V47.2816C163.867 46.9795 163.783 46.7445 163.615 46.5599C163.447 46.3753 163.229 46.2746 162.96 46.2746C162.692 46.2746 162.457 46.3585 162.272 46.5599C162.104 46.7445 162.004 46.9795 162.004 47.2816V49.8496H161.08V45.5193H161.936V45.9221C162.087 45.771 162.272 45.6367 162.49 45.5528C162.708 45.4689 162.943 45.4186 163.195 45.4186C163.497 45.4186 163.749 45.4857 163.984 45.6032C164.202 45.7207 164.387 45.8885 164.521 46.1067C164.672 45.9053 164.89 45.7375 165.142 45.62C165.394 45.5025 165.679 45.4353 165.981 45.4353ZM158.193 45.4353C158.68 45.4353 159.083 45.5864 159.368 45.9053C159.654 46.2242 159.805 46.6438 159.805 47.1474V49.8496H158.882V47.2816C158.882 46.9795 158.798 46.7445 158.63 46.5599C158.462 46.3753 158.227 46.2746 157.942 46.2746C157.656 46.2746 157.421 46.3753 157.237 46.5599C157.052 46.7445 156.951 46.9963 156.951 47.2816V49.8496H156.028V43.2366H156.951V45.9557C157.102 45.7878 157.287 45.6535 157.489 45.5696C157.707 45.4857 157.942 45.4353 158.193 45.4353ZM155.256 49.8496H154.148L152.269 47.4159L153.964 45.5193H155.105L153.36 47.4159L155.256 49.8329V49.8496ZM151.312 43.2366H152.235V49.8496H151.312V43.2366ZM147.972 49.2454C148.291 49.2454 148.542 49.1447 148.761 48.9601C148.979 48.7587 149.079 48.5237 149.079 48.2216V48.1376H147.972C147.72 48.1376 147.535 48.188 147.401 48.2719C147.267 48.3558 147.2 48.4901 147.2 48.6747C147.2 48.8594 147.267 48.9936 147.418 49.0943C147.552 49.1951 147.737 49.2454 147.972 49.2454ZM148.257 45.4353C148.794 45.4353 149.214 45.5864 149.549 45.9053C149.868 46.2242 150.036 46.6606 150.036 47.2481V49.8664H149.18V49.3797C149.029 49.5643 148.828 49.7154 148.593 49.8161C148.358 49.9168 148.089 49.9671 147.804 49.9671C147.351 49.9671 146.981 49.8496 146.713 49.6314C146.444 49.3965 146.293 49.0943 146.293 48.7251C146.293 48.3558 146.444 48.0537 146.73 47.8187C147.015 47.6005 147.401 47.483 147.888 47.483H149.113V47.1977C149.113 46.8956 149.029 46.6606 148.878 46.5095C148.71 46.3585 148.492 46.2746 148.19 46.2746C147.955 46.2746 147.737 46.3249 147.552 46.4256C147.367 46.5263 147.183 46.6942 146.998 46.9124L146.461 46.3585C146.679 46.0396 146.948 45.8214 147.25 45.6535C147.569 45.5025 147.905 45.4186 148.274 45.4186L148.257 45.4353ZM145.84 45.5193V46.3417H145.555C145.186 46.3417 144.883 46.4424 144.648 46.6606C144.413 46.862 144.279 47.1641 144.279 47.5502V49.8664H143.356V45.536H144.212V46.1067C144.363 45.9053 144.548 45.7542 144.766 45.6535C144.984 45.5528 145.219 45.5025 145.471 45.5025C145.605 45.5025 145.723 45.5025 145.823 45.5528L145.84 45.5193ZM139.814 49.1111C140.049 49.1111 140.251 49.0608 140.452 48.9601C140.654 48.8594 140.805 48.7083 140.939 48.4901C141.057 48.2719 141.124 48.0201 141.124 47.7012C141.124 47.3823 141.057 47.1306 140.939 46.9124C140.822 46.6942 140.654 46.5431 140.452 46.4424C140.251 46.3417 140.033 46.2913 139.814 46.2913C139.563 46.2913 139.345 46.3585 139.143 46.476C138.942 46.5935 138.774 46.7613 138.656 46.9795C138.539 47.1977 138.472 47.4327 138.472 47.718C138.472 48.0034 138.522 48.2383 138.64 48.4565C138.757 48.6747 138.908 48.8426 139.11 48.9601C139.311 49.0776 139.546 49.1447 139.798 49.1447L139.814 49.1111ZM142.03 43.2366V49.8496H141.174V49.2286C141.023 49.4468 140.805 49.6314 140.536 49.7489C140.268 49.8832 139.982 49.9336 139.647 49.9336C139.244 49.9336 138.875 49.8329 138.556 49.6314C138.237 49.43 137.985 49.1615 137.8 48.8258C137.616 48.4901 137.532 48.1041 137.532 47.6677C137.532 47.2313 137.616 46.862 137.8 46.5095C137.985 46.1571 138.237 45.8885 138.556 45.6871C138.875 45.4857 139.244 45.385 139.647 45.385C139.949 45.385 140.217 45.4353 140.469 45.5528C140.721 45.6535 140.922 45.8214 141.09 46.0228V43.203H142.03V43.2366ZM134.46 49.1111C134.712 49.1111 134.93 49.044 135.132 48.9265C135.333 48.809 135.501 48.6412 135.602 48.423C135.719 48.2048 135.769 47.9698 135.769 47.6845C135.769 47.3991 135.719 47.1641 135.585 46.9459C135.467 46.7277 135.316 46.5599 135.115 46.4424C134.913 46.3249 134.695 46.2578 134.443 46.2578C134.208 46.2578 134.007 46.3081 133.806 46.4088C133.604 46.5095 133.453 46.6774 133.319 46.8788C133.201 47.097 133.134 47.3488 133.134 47.6677C133.134 47.9866 133.201 48.2383 133.319 48.4565C133.436 48.6747 133.604 48.8258 133.806 48.9265C134.007 49.0272 134.208 49.0776 134.443 49.0776L134.46 49.1111ZM134.611 45.4353C135.014 45.4353 135.383 45.536 135.702 45.7375C136.021 45.9389 136.273 46.2074 136.458 46.5599C136.642 46.9124 136.726 47.2984 136.726 47.718C136.726 48.1376 136.642 48.5237 136.458 48.8762C136.273 49.2286 136.021 49.4972 135.702 49.6818C135.383 49.8832 135.014 49.9839 134.611 49.9839C134.292 49.9839 134.007 49.9168 133.739 49.7993C133.47 49.6818 133.252 49.514 133.101 49.279V49.8832H132.245V43.2701H133.168V46.0899C133.336 45.8885 133.537 45.7375 133.789 45.62C134.041 45.5193 134.309 45.4521 134.611 45.4521V45.4353ZM128.653 45.6703L127.679 48.0705H129.626L128.653 45.6703ZM129.962 48.8929H127.344L126.924 49.8664H125.934L128.502 43.9583H128.821L131.389 49.8664H130.382L129.962 48.8929ZM121.033 49.1111C121.284 49.1111 121.503 49.044 121.704 48.9265C121.905 48.809 122.057 48.6412 122.174 48.423C122.292 48.2048 122.359 47.9698 122.359 47.6845C122.359 47.3991 122.308 47.1641 122.191 46.9459C122.073 46.7277 121.922 46.5599 121.721 46.4424C121.519 46.3249 121.301 46.2578 121.049 46.2578C120.814 46.2578 120.613 46.3081 120.412 46.4088C120.21 46.5095 120.059 46.6774 119.925 46.8788C119.807 47.097 119.74 47.3488 119.74 47.6677C119.74 47.9866 119.807 48.2383 119.925 48.4565C120.042 48.6747 120.21 48.8258 120.412 48.9265C120.613 49.0272 120.814 49.0776 121.049 49.0776L121.033 49.1111ZM121.184 45.4353C121.587 45.4353 121.956 45.536 122.275 45.7375C122.594 45.9389 122.845 46.2074 123.03 46.5431C123.215 46.8956 123.299 47.2648 123.299 47.7012C123.299 48.1376 123.215 48.5237 123.03 48.8594C122.845 49.2118 122.594 49.4804 122.275 49.665C121.956 49.8664 121.587 49.9671 121.184 49.9671C120.882 49.9671 120.613 49.9168 120.361 49.7993C120.11 49.6986 119.908 49.5307 119.723 49.3293V51.4442H118.8V45.536H119.656V46.1403C119.807 45.9221 120.026 45.7375 120.294 45.62C120.563 45.5025 120.848 45.4353 121.167 45.4353H121.184ZM115.645 49.9504C115.292 49.9504 114.957 49.8664 114.671 49.7154C114.386 49.5643 114.151 49.3293 114 49.044C113.832 48.7587 113.748 48.423 113.748 48.0369V45.5193H114.671V48.1041C114.671 48.4062 114.772 48.6412 114.957 48.8258C115.141 49.0104 115.376 49.0943 115.662 49.0943C115.947 49.0943 116.165 49.0104 116.333 48.8258C116.518 48.6412 116.602 48.4062 116.602 48.1041V45.5193H117.525V48.0369C117.525 48.423 117.441 48.7587 117.273 49.044C117.105 49.3293 116.887 49.5643 116.602 49.7154C116.316 49.8664 115.997 49.9504 115.645 49.9504ZM111.113 49.9504C110.744 49.9504 110.408 49.8664 110.106 49.7154C109.804 49.5643 109.552 49.3629 109.367 49.1111L109.905 48.5237C110.089 48.7251 110.291 48.8761 110.475 48.9769C110.677 49.0776 110.878 49.1279 111.113 49.1279C111.314 49.1279 111.482 49.0943 111.617 49.0104C111.751 48.9265 111.818 48.809 111.818 48.6412C111.818 48.5069 111.768 48.4062 111.667 48.339C111.566 48.2719 111.415 48.188 111.197 48.1041L110.761 47.9194C110.375 47.7684 110.089 47.5837 109.905 47.3991C109.72 47.2145 109.619 46.9627 109.619 46.6606C109.619 46.2746 109.77 45.9724 110.056 45.7375C110.341 45.5193 110.71 45.4018 111.147 45.4018C111.768 45.4018 112.271 45.62 112.64 46.0731L112.137 46.6438C112.003 46.5095 111.852 46.3921 111.667 46.3249C111.482 46.241 111.314 46.2074 111.113 46.2074C110.912 46.2074 110.794 46.241 110.677 46.3081C110.576 46.3753 110.526 46.476 110.526 46.6102C110.526 46.7277 110.576 46.8117 110.66 46.8788C110.744 46.9459 110.895 47.0299 111.113 47.1138L111.533 47.2816C111.952 47.4495 112.238 47.6341 112.439 47.8355C112.624 48.0369 112.724 48.2887 112.724 48.5908C112.724 49.0104 112.573 49.3293 112.271 49.5643C111.969 49.7993 111.583 49.9168 111.13 49.9168L111.113 49.9504ZM106.598 49.9504C106.246 49.9504 105.91 49.8664 105.625 49.7154C105.339 49.5643 105.104 49.3293 104.953 49.044C104.785 48.7587 104.701 48.423 104.701 48.0369V45.5193H105.625V48.1041C105.625 48.4062 105.725 48.6412 105.91 48.8258C106.095 49.0104 106.329 49.0943 106.615 49.0943C106.9 49.0943 107.118 49.0104 107.286 48.8258C107.471 48.6412 107.555 48.4062 107.555 48.1041V45.5193H108.478V48.0369C108.478 48.423 108.394 48.7587 108.226 49.044C108.058 49.3293 107.84 49.5643 107.555 49.7154C107.269 49.8664 106.951 49.9504 106.598 49.9504ZM101.865 45.4353C102.352 45.4353 102.754 45.5864 103.04 45.9053C103.325 46.2242 103.476 46.6438 103.476 47.1474V49.8496H102.553V47.2816C102.553 46.9795 102.469 46.7445 102.301 46.5599C102.133 46.3753 101.898 46.2746 101.613 46.2746C101.328 46.2746 101.093 46.3753 100.908 46.5599C100.723 46.7445 100.623 46.9963 100.623 47.2816V49.8496H99.6996V43.2366H100.623V45.9557C100.774 45.7878 100.958 45.6535 101.16 45.5696C101.378 45.4857 101.613 45.4353 101.865 45.4353ZM98.7429 49.0104V49.8496H94.0601V49.5979L97.2827 44.8647H94.4293V44.0254H98.7261V44.2772L95.4867 49.0104H98.7261H98.7429Z" fill="#D9B96B"/>
<path d="M262.022 56.1942C261.72 56.1942 261.451 56.2949 261.216 56.4795C260.998 56.6641 260.847 56.9327 260.763 57.2516H263.113C263.113 56.9159 262.995 56.6641 262.777 56.4795C262.559 56.2949 262.307 56.1942 262.005 56.1942M263.986 57.9733H260.763C260.83 58.3258 260.981 58.6111 261.233 58.8126C261.485 59.014 261.804 59.1147 262.173 59.1147C262.626 59.1147 263.046 58.9468 263.432 58.5944L263.868 59.2322C263.382 59.7021 262.794 59.9203 262.139 59.9203C261.703 59.9203 261.3 59.8196 260.948 59.6182C260.595 59.4168 260.31 59.1482 260.109 58.8126C259.907 58.4769 259.806 58.0908 259.806 57.6544C259.806 57.218 259.907 56.8488 260.109 56.5131C260.31 56.1606 260.578 55.8921 260.914 55.6906C261.25 55.4892 261.636 55.3885 262.039 55.3885C262.425 55.3885 262.76 55.4724 263.063 55.6571C263.365 55.8249 263.6 56.0599 263.784 56.362C263.952 56.6641 264.053 56.9998 264.053 57.3691C264.053 57.5537 264.036 57.7383 263.986 57.9565V57.9733ZM257.205 55.4053C257.692 55.4053 258.094 55.5564 258.38 55.8753C258.665 56.1942 258.816 56.6138 258.816 57.1173V59.8196H257.893V57.2516C257.893 56.9495 257.809 56.7145 257.641 56.5299C257.473 56.3452 257.238 56.2445 256.953 56.2445C256.668 56.2445 256.433 56.3452 256.248 56.5299C256.063 56.7145 255.963 56.9663 255.963 57.2516V59.8196H255.04V53.2065H255.963V55.9256C256.114 55.7578 256.298 55.6235 256.5 55.5396C256.718 55.4557 256.953 55.4053 257.205 55.4053ZM254.083 59.0475V59.8364C253.798 59.9035 253.546 59.9371 253.311 59.9371C252.807 59.9371 252.421 59.8196 252.136 59.5679C251.851 59.3161 251.716 58.9468 251.716 58.4265V56.3117H251.011V55.506H251.716V54.3647H252.656V55.506H253.949V56.3117H252.656V58.3426C252.656 58.6111 252.723 58.8126 252.874 58.93C253.025 59.0475 253.227 59.0979 253.512 59.0979C253.646 59.0979 253.831 59.0979 254.083 59.0475ZM248.41 53.9618C248.124 53.9618 247.923 54.0122 247.772 54.1297C247.638 54.2472 247.554 54.4318 247.554 54.7171V55.506H248.578V56.3117H247.554V59.8364H246.631V56.3117H246.01V55.506H246.631V54.6332C246.631 54.1297 246.765 53.7436 247.05 53.5087C247.319 53.2569 247.705 53.1394 248.175 53.1394C248.41 53.1394 248.611 53.173 248.779 53.2233V54.0122C248.645 53.9954 248.51 53.9786 248.41 53.9786V53.9618ZM243.106 59.0643C243.358 59.0643 243.593 58.9972 243.794 58.8797C243.995 58.7622 244.163 58.5943 244.281 58.3762C244.398 58.158 244.449 57.923 244.449 57.6712C244.449 57.4194 244.398 57.1677 244.281 56.9495C244.163 56.7313 243.995 56.5634 243.794 56.4292C243.593 56.3117 243.358 56.2445 243.123 56.2445C242.888 56.2445 242.636 56.3117 242.434 56.4292C242.233 56.5466 242.065 56.7313 241.948 56.9495C241.83 57.1677 241.763 57.4027 241.763 57.6712C241.763 57.9398 241.83 58.1747 241.948 58.3929C242.065 58.6111 242.233 58.779 242.434 58.8965C242.636 59.014 242.871 59.0811 243.123 59.0811L243.106 59.0643ZM243.106 59.9203C242.686 59.9203 242.3 59.8196 241.948 59.6182C241.595 59.4168 241.327 59.1482 241.125 58.7958C240.924 58.4433 240.823 58.074 240.823 57.6544C240.823 57.2348 240.924 56.8488 241.125 56.5131C241.327 56.1606 241.612 55.8921 241.948 55.6906C242.3 55.4892 242.686 55.3885 243.106 55.3885C243.525 55.3885 243.912 55.4892 244.264 55.6906C244.616 55.8921 244.902 56.1606 245.103 56.5131C245.305 56.8655 245.405 57.2348 245.405 57.6544C245.405 58.074 245.305 58.4433 245.103 58.7958C244.902 59.1482 244.616 59.4168 244.264 59.6182C243.912 59.8196 243.525 59.9203 243.106 59.9203ZM237.701 59.0475V59.8364C237.416 59.9035 237.164 59.9371 236.929 59.9371C236.426 59.9371 236.04 59.8196 235.754 59.5679C235.469 59.3161 235.335 58.9468 235.335 58.4265V56.3117H234.63V55.506H235.335V54.3647H236.275V55.506H237.567V56.3117H236.275V58.3426C236.275 58.6111 236.342 58.8126 236.493 58.93C236.644 59.0475 236.845 59.0979 237.131 59.0979C237.265 59.0979 237.45 59.0979 237.701 59.0475ZM232.213 55.4053C232.716 55.4053 233.119 55.5564 233.404 55.8753C233.69 56.1942 233.841 56.6138 233.841 57.1173V59.8196H232.918V57.2348C232.918 56.9327 232.834 56.6977 232.649 56.5131C232.481 56.3284 232.246 56.2277 231.961 56.2277C231.676 56.2277 231.441 56.3284 231.256 56.5131C231.071 56.6977 230.971 56.9495 230.971 57.2348V59.8196H230.048V55.4892H230.904V55.9088C231.239 55.5564 231.659 55.3885 232.196 55.3885L232.213 55.4053ZM226.959 56.1942C226.657 56.1942 226.389 56.2949 226.154 56.4795C225.935 56.6641 225.784 56.9327 225.7 57.2516H228.05C228.05 56.9159 227.933 56.6641 227.715 56.4795C227.496 56.2949 227.245 56.1942 226.942 56.1942H226.959ZM228.923 57.9733H225.7C225.768 58.3258 225.919 58.6111 226.17 58.8126C226.422 59.014 226.741 59.1147 227.11 59.1147C227.563 59.1147 227.983 58.9468 228.369 58.5944L228.806 59.2322C228.319 59.7021 227.731 59.9203 227.077 59.9203C226.64 59.9203 226.238 59.8196 225.885 59.6182C225.533 59.4168 225.247 59.1482 225.046 58.8126C224.844 58.4769 224.744 58.0908 224.744 57.6544C224.744 57.218 224.844 56.8488 225.046 56.5131C225.247 56.1606 225.516 55.8921 225.851 55.6906C226.187 55.4892 226.573 55.3885 226.976 55.3885C227.362 55.3885 227.698 55.4724 228 55.6571C228.302 55.8249 228.537 56.0599 228.722 56.362C228.889 56.6641 228.99 56.9998 228.99 57.3691C228.99 57.5537 228.973 57.7383 228.923 57.9565V57.9733ZM221.471 59.0811C221.706 59.0811 221.907 59.0307 222.109 58.93C222.31 58.8293 222.461 58.6783 222.595 58.4601C222.713 58.2419 222.78 57.9901 222.78 57.6712C222.78 57.3523 222.713 57.1005 222.595 56.8823C222.478 56.6641 222.31 56.5131 222.109 56.4124C221.907 56.3117 221.689 56.2613 221.471 56.2613C221.219 56.2613 221.001 56.3285 220.799 56.4459C220.598 56.5634 220.43 56.7313 220.313 56.9495C220.195 57.1677 220.128 57.4027 220.128 57.688C220.128 57.9733 220.178 58.2083 220.296 58.4265C220.413 58.6447 220.564 58.8126 220.766 58.93C220.967 59.0475 221.202 59.1147 221.454 59.1147L221.471 59.0811ZM223.686 53.2233V59.8364H222.83V59.2154C222.679 59.4336 222.461 59.6182 222.192 59.7357C221.924 59.87 221.639 59.9203 221.303 59.9203C220.9 59.9203 220.531 59.8196 220.212 59.6182C219.893 59.4168 219.641 59.1482 219.457 58.8126C219.272 58.4769 219.188 58.0908 219.188 57.6544C219.188 57.218 219.272 56.8488 219.457 56.4963C219.641 56.1438 219.893 55.8753 220.212 55.6739C220.531 55.4724 220.9 55.3717 221.303 55.3717C221.605 55.3717 221.874 55.4221 222.125 55.5396C222.377 55.6403 222.579 55.8081 222.746 56.0095V53.1898H223.686V53.2233ZM217.661 54.4989C217.476 54.4989 217.342 54.4318 217.207 54.3143C217.09 54.1968 217.023 54.0458 217.023 53.8779C217.023 53.7101 217.09 53.559 217.207 53.4415C217.325 53.324 217.476 53.2569 217.661 53.2569C217.845 53.2569 217.98 53.324 218.097 53.4415C218.215 53.559 218.282 53.7101 218.282 53.8779C218.282 54.0458 218.215 54.1968 218.097 54.3143C217.98 54.4318 217.828 54.4989 217.661 54.4989ZM217.207 55.506H218.131V59.8364H217.207V55.506ZM214.522 59.9203C214.153 59.9203 213.817 59.8364 213.515 59.6853C213.213 59.5343 212.961 59.3329 212.776 59.0811L213.313 58.4936C213.498 58.6951 213.7 58.8461 213.884 58.9468C214.086 59.0475 214.287 59.0979 214.522 59.0979C214.723 59.0979 214.891 59.0643 215.025 58.9804C215.16 58.8965 215.227 58.779 215.227 58.6111C215.227 58.4769 215.177 58.3762 215.076 58.309C214.975 58.2419 214.824 58.158 214.606 58.074L214.169 57.8894C213.783 57.7383 213.498 57.5537 213.313 57.3691C213.129 57.1845 213.028 56.9327 213.028 56.6306C213.028 56.2445 213.179 55.9424 213.465 55.7074C213.75 55.4892 214.119 55.3717 214.556 55.3717C215.177 55.3717 215.68 55.5899 216.049 56.0431L215.546 56.6138C215.412 56.4795 215.26 56.362 215.076 56.2949C214.891 56.211 214.723 56.1774 214.522 56.1774C214.321 56.1774 214.203 56.211 214.086 56.2781C213.985 56.3452 213.935 56.4459 213.935 56.5802C213.935 56.6977 213.985 56.7816 214.069 56.8488C214.153 56.9159 214.304 56.9998 214.522 57.0837L214.942 57.2516C215.361 57.4194 215.647 57.6041 215.848 57.8055C216.033 58.0069 216.133 58.2587 216.133 58.5608C216.133 58.9804 215.982 59.2993 215.68 59.5343C215.378 59.7693 214.992 59.8868 214.539 59.8868L214.522 59.9203ZM210.091 56.1942C209.789 56.1942 209.52 56.2949 209.285 56.4795C209.067 56.6641 208.916 56.9327 208.832 57.2516H211.182C211.182 56.9159 211.064 56.6641 210.846 56.4795C210.628 56.2949 210.376 56.1942 210.074 56.1942H210.091ZM212.055 57.9733H208.832C208.899 58.3258 209.05 58.6111 209.302 58.8126C209.554 59.014 209.873 59.1147 210.242 59.1147C210.695 59.1147 211.115 58.9468 211.501 58.5944L211.937 59.2322C211.45 59.7021 210.863 59.9203 210.208 59.9203C209.772 59.9203 209.369 59.8196 209.017 59.6182C208.664 59.4168 208.379 59.1482 208.177 58.8126C207.976 58.4769 207.875 58.0908 207.875 57.6544C207.875 57.218 207.976 56.8488 208.177 56.5131C208.379 56.1606 208.647 55.8921 208.983 55.6906C209.319 55.4892 209.705 55.3885 210.108 55.3885C210.494 55.3885 210.829 55.4724 211.132 55.6571C211.434 55.8249 211.669 56.0599 211.853 56.362C212.021 56.6641 212.105 56.9998 212.105 57.3691C212.105 57.5537 212.088 57.7383 212.038 57.9565L212.055 57.9733ZM207.422 55.506V56.3285H207.137C206.768 56.3285 206.465 56.4292 206.23 56.6474C205.995 56.8488 205.861 57.1509 205.861 57.5369V59.8532H204.938V55.5228H205.794V56.0935C205.945 55.8921 206.13 55.7578 206.348 55.6403C206.566 55.5396 206.801 55.4892 207.053 55.4892C207.187 55.4892 207.305 55.4892 207.405 55.5396L207.422 55.506ZM201.984 56.7481C202.32 56.7481 202.571 56.6641 202.739 56.4963C202.924 56.3285 203.008 56.0935 203.008 55.8081C203.008 55.5228 202.924 55.2878 202.739 55.1032C202.555 54.9186 202.303 54.8346 201.984 54.8346H200.809V56.7481H201.984ZM199.869 54.0122H202.001C202.387 54.0122 202.739 54.0793 203.025 54.2304C203.327 54.3815 203.562 54.5829 203.73 54.8682C203.897 55.1368 203.981 55.4389 203.981 55.7914C203.981 56.1438 203.897 56.4459 203.73 56.7145C203.562 56.983 203.327 57.2012 203.025 57.3523C202.722 57.5034 202.387 57.5873 202.001 57.5873H200.809V59.8364H199.869V54.0122ZM194.246 56.1942C193.944 56.1942 193.676 56.2949 193.441 56.4795C193.222 56.6641 193.071 56.9327 192.988 57.2516H195.337C195.337 56.9159 195.22 56.6641 195.002 56.4795C194.783 56.2949 194.532 56.1942 194.23 56.1942H194.246ZM196.21 57.9733H192.988C193.055 58.3258 193.206 58.6111 193.457 58.8126C193.709 59.014 194.028 59.1147 194.397 59.1147C194.851 59.1147 195.27 58.9468 195.656 58.5944L196.093 59.2322C195.606 59.7021 195.018 59.9203 194.364 59.9203C193.927 59.9203 193.525 59.8196 193.172 59.6182C192.82 59.4168 192.534 59.1482 192.333 58.8126C192.131 58.4769 192.031 58.0908 192.031 57.6544C192.031 57.218 192.131 56.8488 192.333 56.5131C192.534 56.1606 192.803 55.8921 193.139 55.6906C193.474 55.4892 193.86 55.3885 194.263 55.3885C194.649 55.3885 194.985 55.4724 195.287 55.6571C195.589 55.8249 195.824 56.0599 196.009 56.362C196.177 56.6641 196.277 56.9998 196.277 57.3691C196.277 57.5537 196.26 57.7383 196.21 57.9565V57.9733ZM189.429 55.4053C189.916 55.4053 190.319 55.5564 190.604 55.8753C190.889 56.1942 191.041 56.6138 191.041 57.1173V59.8196H190.117V57.2516C190.117 56.9495 190.033 56.7145 189.866 56.5299C189.698 56.3452 189.463 56.2445 189.177 56.2445C188.892 56.2445 188.657 56.3452 188.472 56.5299C188.288 56.7145 188.187 56.9663 188.187 57.2516V59.8196H187.264V53.2065H188.187V55.9256C188.338 55.7578 188.523 55.6235 188.724 55.5396C188.942 55.4557 189.177 55.4053 189.429 55.4053ZM186.324 59.0475V59.8364C186.039 59.9035 185.787 59.9371 185.552 59.9371C185.048 59.9371 184.662 59.8196 184.377 59.5679C184.092 59.3161 183.957 58.9468 183.957 58.4265V56.3117H183.253V55.506H183.957V54.3647H184.897V55.506H186.19V56.3117H184.897V58.3426C184.897 58.6111 184.965 58.8126 185.116 58.93C185.267 59.0475 185.468 59.0979 185.753 59.0979C185.888 59.0979 186.072 59.0979 186.324 59.0475ZM180.45 55.506V56.3285H180.164C179.795 56.3285 179.493 56.4292 179.258 56.6474C179.023 56.8488 178.889 57.1509 178.889 57.5369V59.8532H177.965V55.5228H178.821V56.0935C178.972 55.8921 179.157 55.7578 179.375 55.6403C179.594 55.5396 179.828 55.4892 180.08 55.4892C180.215 55.4892 180.332 55.4892 180.433 55.5396L180.45 55.506ZM174.877 56.1942C174.575 56.1942 174.306 56.2949 174.071 56.4795C173.853 56.6641 173.702 56.9327 173.618 57.2516H175.968C175.968 56.9159 175.851 56.6641 175.632 56.4795C175.414 56.2949 175.162 56.1942 174.86 56.1942H174.877ZM176.841 57.9733H173.618C173.685 58.3258 173.836 58.6111 174.088 58.8126C174.34 59.014 174.659 59.1147 175.028 59.1147C175.481 59.1147 175.901 58.9468 176.287 58.5944L176.723 59.2322C176.237 59.7021 175.649 59.9203 174.995 59.9203C174.558 59.9203 174.155 59.8196 173.803 59.6182C173.45 59.4168 173.165 59.1482 172.964 58.8126C172.762 58.4769 172.662 58.0908 172.662 57.6544C172.662 57.218 172.762 56.8488 172.964 56.5131C173.165 56.1606 173.434 55.8921 173.769 55.6906C174.105 55.4892 174.491 55.3885 174.894 55.3885C175.28 55.3885 175.616 55.4724 175.918 55.6571C176.22 55.8249 176.455 56.0599 176.639 56.362C176.807 56.6641 176.891 56.9998 176.891 57.3691C176.891 57.5537 176.874 57.7383 176.824 57.9565L176.841 57.9733ZM169.372 59.0811C169.607 59.0811 169.808 59.0307 170.01 58.93C170.211 58.8293 170.362 58.6783 170.496 58.4601C170.614 58.2419 170.681 57.9901 170.681 57.6712C170.681 57.3523 170.614 57.1005 170.496 56.8823C170.379 56.6641 170.211 56.5131 170.01 56.4124C169.808 56.3117 169.59 56.2613 169.372 56.2613C169.12 56.2613 168.902 56.3285 168.7 56.4459C168.499 56.5634 168.331 56.7313 168.214 56.9495C168.096 57.1677 168.029 57.4027 168.029 57.688C168.029 57.9733 168.079 58.2083 168.197 58.4265C168.314 58.6447 168.465 58.8126 168.667 58.93C168.868 59.0475 169.103 59.1147 169.355 59.1147L169.372 59.0811ZM171.604 53.2233V59.8364H170.748V59.2154C170.597 59.4336 170.379 59.6182 170.11 59.7357C169.842 59.87 169.556 59.9203 169.221 59.9203C168.818 59.9203 168.449 59.8196 168.13 59.6182C167.811 59.4168 167.559 59.1482 167.374 58.8126C167.19 58.4769 167.106 58.0908 167.106 57.6544C167.106 57.218 167.19 56.8488 167.374 56.4963C167.559 56.1438 167.811 55.8753 168.13 55.6739C168.449 55.4724 168.818 55.3717 169.221 55.3717C169.523 55.3717 169.791 55.4221 170.043 55.5396C170.295 55.6403 170.496 55.8081 170.664 56.0095V53.1898H171.604V53.2233ZM164.471 55.4053C164.974 55.4053 165.377 55.5564 165.662 55.8753C165.948 56.1942 166.099 56.6138 166.099 57.1173V59.8196H165.176V57.2348C165.176 56.9327 165.092 56.6977 164.924 56.5131C164.756 56.3284 164.521 56.2277 164.236 56.2277C163.95 56.2277 163.715 56.3284 163.531 56.5131C163.346 56.6977 163.245 56.9495 163.245 57.2348V59.8196H162.322V55.4892H163.178V55.9088C163.514 55.5564 163.934 55.3885 164.471 55.3885V55.4053ZM159.133 59.9203C158.781 59.9203 158.445 59.8364 158.16 59.6853C157.874 59.5343 157.639 59.2993 157.488 59.014C157.321 58.7286 157.237 58.3929 157.237 58.0069V55.4892H158.16V58.074C158.16 58.3762 158.26 58.6111 158.445 58.7958C158.63 58.9804 158.865 59.0643 159.15 59.0643C159.435 59.0643 159.654 58.9804 159.821 58.7958C160.006 58.6111 160.09 58.3762 160.09 58.074V55.4892H161.013V58.0069C161.013 58.3929 160.929 58.7286 160.761 59.014C160.594 59.2993 160.375 59.5343 160.09 59.6853C159.805 59.8364 159.486 59.9203 159.133 59.9203ZM151.899 55.4053C152.403 55.4053 152.806 55.5564 153.091 55.8753C153.376 56.1942 153.527 56.6138 153.527 57.1173V59.8196H152.604V57.2348C152.604 56.9327 152.52 56.6977 152.336 56.5131C152.168 56.3284 151.933 56.2277 151.647 56.2277C151.362 56.2277 151.127 56.3284 150.942 56.5131C150.758 56.6977 150.657 56.9495 150.657 57.2348V59.8196H149.734V55.4892H150.59V55.9088C150.926 55.5564 151.345 55.3885 151.882 55.3885L151.899 55.4053ZM146.394 59.0643C146.646 59.0643 146.881 58.9972 147.082 58.8797C147.283 58.7622 147.451 58.5943 147.569 58.3762C147.686 58.158 147.753 57.923 147.753 57.6712C147.753 57.4194 147.703 57.1677 147.569 56.9495C147.451 56.7313 147.283 56.5634 147.082 56.4292C146.881 56.2949 146.646 56.2445 146.411 56.2445C146.176 56.2445 145.924 56.3117 145.722 56.4292C145.521 56.5466 145.353 56.7313 145.236 56.9495C145.118 57.1677 145.051 57.4027 145.051 57.6712C145.051 57.9398 145.118 58.1747 145.236 58.3929C145.353 58.6111 145.521 58.779 145.722 58.8965C145.924 59.014 146.159 59.0811 146.411 59.0811L146.394 59.0643ZM146.394 59.9203C145.974 59.9203 145.588 59.8196 145.236 59.6182C144.883 59.4168 144.615 59.1482 144.413 58.7958C144.212 58.4433 144.111 58.074 144.111 57.6544C144.111 57.2348 144.212 56.8488 144.413 56.5131C144.615 56.1606 144.9 55.8921 145.236 55.6906C145.588 55.4892 145.974 55.3885 146.394 55.3885C146.813 55.3885 147.2 55.4892 147.552 55.6906C147.904 55.8921 148.19 56.1606 148.391 56.5131C148.593 56.8655 148.693 57.2348 148.693 57.6544C148.693 58.074 148.593 58.4433 148.391 58.7958C148.19 59.1482 147.904 59.4168 147.552 59.6182C147.2 59.8196 146.813 59.9203 146.394 59.9203ZM142.584 54.4989C142.416 54.4989 142.265 54.4318 142.131 54.3143C142.013 54.1968 141.946 54.0458 141.946 53.8779C141.946 53.7101 142.013 53.559 142.131 53.4415C142.248 53.324 142.399 53.2569 142.584 53.2569C142.768 53.2569 142.903 53.324 143.02 53.4415C143.138 53.559 143.205 53.7101 143.205 53.8779C143.205 54.0458 143.138 54.1968 143.02 54.3143C142.903 54.4318 142.752 54.4989 142.584 54.4989ZM142.114 55.506H143.037V59.8364H142.114V55.506ZM141.174 59.0475V59.8364C140.889 59.9035 140.637 59.9371 140.402 59.9371C139.898 59.9371 139.512 59.8196 139.227 59.5679C138.942 59.3161 138.807 58.9468 138.807 58.4265V56.3117H138.102V55.506H138.807V54.3647H139.747V55.506H141.04V56.3117H139.747V58.3426C139.747 58.6111 139.814 58.8126 139.965 58.93C140.116 59.0475 140.318 59.0979 140.603 59.0979C140.737 59.0979 140.922 59.0979 141.174 59.0475ZM135.266 59.2154C135.585 59.2154 135.836 59.1147 136.055 58.93C136.273 58.7286 136.374 58.4936 136.374 58.1915V58.1076H135.266C135.014 58.1076 134.829 58.158 134.695 58.2419C134.561 58.3258 134.494 58.4601 134.494 58.6447C134.494 58.8293 134.561 58.9636 134.712 59.0643C134.846 59.165 135.031 59.2154 135.266 59.2154ZM135.534 55.4053C136.071 55.4053 136.491 55.5564 136.827 55.8753C137.146 56.1942 137.313 56.6306 137.313 57.218V59.8364H136.457V59.3497C136.306 59.5343 136.105 59.6853 135.87 59.786C135.635 59.8868 135.366 59.9371 135.081 59.9371C134.628 59.9371 134.259 59.8196 133.99 59.6014C133.722 59.3664 133.571 59.0643 133.571 58.6951C133.571 58.3258 133.722 58.0237 134.007 57.7887C134.292 57.5705 134.678 57.453 135.165 57.453H136.39V57.1677C136.39 56.8656 136.306 56.6306 136.155 56.4795C135.988 56.3285 135.769 56.2445 135.467 56.2445C135.232 56.2445 135.014 56.2949 134.829 56.3956C134.645 56.4963 134.46 56.6641 134.275 56.8823L133.738 56.3285C133.957 56.0095 134.225 55.7914 134.527 55.6403C134.846 55.4892 135.182 55.4053 135.551 55.4053H135.534ZM133.134 55.506V56.3285H132.849C132.48 56.3285 132.177 56.4292 131.942 56.6474C131.707 56.8488 131.573 57.1509 131.573 57.5369V59.8532H130.65V55.5228H131.506V56.0935C131.657 55.8921 131.842 55.7578 132.06 55.6403C132.278 55.5396 132.513 55.4892 132.765 55.4892C132.899 55.4892 133.017 55.4892 133.117 55.5396L133.134 55.506ZM129.727 59.0475V59.8364C129.442 59.9035 129.19 59.9371 128.955 59.9371C128.451 59.9371 128.065 59.8196 127.78 59.5679C127.495 59.3161 127.36 58.9468 127.36 58.4265V56.3117H126.655V55.506H127.36V54.3647H128.3V55.506H129.593V56.3117H128.3V58.3426C128.3 58.6111 128.367 58.8126 128.518 58.93C128.669 59.0475 128.871 59.0979 129.156 59.0979C129.29 59.0979 129.475 59.0979 129.727 59.0475ZM124.473 59.9203C124.104 59.9203 123.768 59.8364 123.466 59.6853C123.164 59.5343 122.912 59.3329 122.728 59.0811L123.265 58.4936C123.45 58.6951 123.651 58.8461 123.836 58.9468C124.037 59.0475 124.238 59.0979 124.473 59.0979C124.675 59.0979 124.843 59.0643 124.977 58.9804C125.111 58.8965 125.178 58.779 125.178 58.6111C125.178 58.4769 125.128 58.3762 125.027 58.309C124.927 58.2419 124.775 58.158 124.557 58.074L124.121 57.8894C123.735 57.7383 123.45 57.5537 123.265 57.3691C123.08 57.1845 122.98 56.9327 122.98 56.6306C122.98 56.2445 123.131 55.9424 123.416 55.7074C123.701 55.4892 124.071 55.3717 124.507 55.3717C125.128 55.3717 125.631 55.5899 126.001 56.0431L125.497 56.6138C125.363 56.4795 125.212 56.362 125.027 56.2949C124.843 56.211 124.675 56.1774 124.473 56.1774C124.272 56.1774 124.154 56.211 124.037 56.2781C123.936 56.3452 123.886 56.4459 123.886 56.5802C123.886 56.6977 123.936 56.7816 124.02 56.8488C124.104 56.9159 124.255 56.9998 124.473 57.0837L124.893 57.2516C125.313 57.4194 125.598 57.6041 125.799 57.8055C125.984 58.0069 126.085 58.2587 126.085 58.5608C126.085 58.9804 125.934 59.2993 125.631 59.5343C125.329 59.7693 124.943 59.8868 124.49 59.8868L124.473 59.9203ZM121.335 54.4989C121.15 54.4989 121.016 54.4318 120.881 54.3143C120.764 54.1968 120.697 54.0458 120.697 53.8779C120.697 53.7101 120.764 53.559 120.881 53.4415C120.999 53.324 121.15 53.2569 121.335 53.2569C121.519 53.2569 121.654 53.324 121.771 53.4415C121.889 53.559 121.956 53.7101 121.956 53.8779C121.956 54.0458 121.889 54.1968 121.771 54.3143C121.654 54.4318 121.503 54.4989 121.335 54.4989ZM120.865 55.506H121.788V59.8364H120.865V55.506ZM117.961 55.4053C118.465 55.4053 118.867 55.5564 119.153 55.8753C119.438 56.1942 119.589 56.6138 119.589 57.1173V59.8196H118.666V57.2348C118.666 56.9327 118.582 56.6977 118.397 56.5131C118.23 56.3284 117.995 56.2277 117.709 56.2277C117.424 56.2277 117.189 56.3284 117.004 56.5131C116.82 56.6977 116.719 56.9495 116.719 57.2348V59.8196H115.796V55.4892H116.652V55.9088C116.987 55.5564 117.407 55.3885 117.944 55.3885L117.961 55.4053ZM114 54.4989C113.815 54.4989 113.681 54.4318 113.547 54.3143C113.429 54.1968 113.362 54.0458 113.362 53.8779C113.362 53.7101 113.429 53.559 113.547 53.4415C113.664 53.324 113.815 53.2569 114 53.2569C114.184 53.2569 114.319 53.324 114.436 53.4415C114.554 53.559 114.621 53.7101 114.621 53.8779C114.621 54.0458 114.554 54.1968 114.436 54.3143C114.319 54.4318 114.168 54.4989 114 54.4989ZM113.53 55.506H114.453V59.8364H113.53V55.506ZM110.643 55.4053C111.147 55.4053 111.533 55.5564 111.818 55.8753C112.103 56.1942 112.238 56.6138 112.238 57.1173V59.8196H111.298V57.2516C111.298 56.9495 111.214 56.6977 111.063 56.5131C110.895 56.3284 110.677 56.2445 110.408 56.2445C110.139 56.2445 109.904 56.3284 109.72 56.5131C109.552 56.6977 109.451 56.9327 109.451 57.2012V59.8196H108.528V57.2516C108.528 56.9495 108.444 56.7145 108.276 56.5299C108.109 56.3452 107.89 56.2445 107.622 56.2445C107.353 56.2445 107.118 56.3452 106.934 56.5299C106.749 56.7145 106.665 56.9495 106.665 57.2516V59.8196H105.742V55.4892H106.598V55.8921C106.749 55.741 106.934 55.6067 107.152 55.5228C107.37 55.4389 107.605 55.3885 107.857 55.3885C108.159 55.3885 108.411 55.4557 108.646 55.5732C108.864 55.6906 109.048 55.8585 109.183 56.0767C109.334 55.8753 109.552 55.7074 109.804 55.5899C110.056 55.4724 110.341 55.4053 110.643 55.4053ZM102.184 59.0811C102.419 59.0811 102.62 59.0307 102.821 58.93C103.023 58.8293 103.174 58.6783 103.308 58.4601C103.426 58.2419 103.493 57.9901 103.493 57.6712C103.493 57.3523 103.426 57.1005 103.308 56.8823C103.191 56.6641 103.023 56.5131 102.821 56.4124C102.62 56.3117 102.402 56.2613 102.184 56.2613C101.932 56.2613 101.714 56.3285 101.512 56.4459C101.311 56.5634 101.143 56.7313 101.025 56.9495C100.908 57.1677 100.841 57.4027 100.841 57.688C100.841 57.9733 100.891 58.2083 101.009 58.4265C101.126 58.6447 101.277 58.8126 101.479 58.93C101.68 59.0475 101.915 59.1147 102.167 59.1147L102.184 59.0811ZM104.399 53.2233V59.8364H103.543V59.2154C103.392 59.4336 103.174 59.6182 102.905 59.7357C102.637 59.8532 102.351 59.9203 102.016 59.9203C101.613 59.9203 101.244 59.8196 100.925 59.6182C100.606 59.4168 100.354 59.1482 100.169 58.8126C99.9848 58.4769 99.9009 58.0908 99.9009 57.6544C99.9009 57.218 99.9848 56.8488 100.169 56.4963C100.354 56.1438 100.606 55.8753 100.925 55.6739C101.244 55.4724 101.613 55.3717 102.016 55.3717C102.318 55.3717 102.586 55.4221 102.838 55.5396C103.09 55.6403 103.291 55.8081 103.459 56.0095V53.1898H104.399V53.2233ZM96.7454 55.6571L95.772 58.0572H97.7189L96.7454 55.6571ZM98.0546 58.8629H95.4363L95.0167 59.8364H94.0264L96.5944 53.9283H96.9133L99.4813 59.8364H98.4742L98.0546 58.8629Z" fill="#D9B96B"/>
<path d="M158.059 69.9071C157.639 69.9071 157.253 69.8064 156.901 69.605C156.548 69.4036 156.28 69.1351 156.078 68.7826C155.877 68.4301 155.776 68.0608 155.776 67.6412C155.776 67.2216 155.877 66.8356 156.078 66.4999C156.28 66.1642 156.565 65.8789 156.918 65.6775C157.27 65.476 157.656 65.3753 158.076 65.3753C158.495 65.3753 158.831 65.4593 159.15 65.6439C159.469 65.8285 159.721 66.0635 159.905 66.3824L159.251 66.8859C158.932 66.4495 158.546 66.2313 158.093 66.2313C157.841 66.2313 157.606 66.2985 157.404 66.416C157.203 66.5335 157.035 66.7013 156.918 66.9195C156.8 67.1377 156.733 67.3727 156.733 67.6245C156.733 67.8762 156.8 68.128 156.918 68.3462C157.035 68.5644 157.203 68.7322 157.404 68.8497C157.606 68.9672 157.841 69.0343 158.093 69.0343C158.546 69.0343 158.932 68.8162 159.251 68.3798L159.905 68.8833C159.704 69.2022 159.452 69.4372 159.15 69.6218C158.831 69.8064 158.479 69.8904 158.093 69.8904M154.249 64.469C154.064 64.469 153.93 64.4018 153.796 64.3011C153.678 64.1836 153.611 64.0326 153.611 63.8647C153.611 63.6969 153.678 63.5458 153.796 63.4283C153.913 63.3108 154.064 63.2437 154.249 63.2437C154.434 63.2437 154.568 63.3108 154.685 63.4283C154.803 63.5458 154.87 63.6969 154.87 63.8647C154.87 64.0326 154.803 64.1836 154.685 64.3011C154.568 64.4186 154.417 64.469 154.249 64.469ZM153.779 65.476H154.702V69.8064H153.779V65.476ZM151.513 63.1934H152.436V69.8064H151.513V63.1934ZM148.173 69.0511C148.425 69.0511 148.643 68.984 148.844 68.8665C149.046 68.749 149.214 68.5812 149.314 68.363C149.432 68.1448 149.482 67.9098 149.482 67.6245C149.482 67.3391 149.432 67.1041 149.314 66.8859C149.197 66.6677 149.046 66.5167 148.844 66.3824C148.643 66.2649 148.425 66.1978 148.173 66.1978C147.938 66.1978 147.737 66.2481 147.535 66.3488C147.334 66.4495 147.183 66.6174 147.048 66.8188C146.931 67.037 146.864 67.2888 146.864 67.6077C146.864 67.9266 146.931 68.1783 147.048 68.3965C147.166 68.6147 147.334 68.7658 147.535 68.8665C147.737 68.9672 147.938 69.0176 148.173 69.0176V69.0511ZM148.324 65.3753C148.727 65.3753 149.096 65.476 149.415 65.6775C149.734 65.8789 149.986 66.1474 150.17 66.4999C150.355 66.8524 150.439 67.2384 150.439 67.658C150.439 68.0776 150.355 68.4637 150.17 68.8161C149.986 69.1686 149.734 69.4372 149.415 69.6218C149.096 69.8232 148.727 69.9239 148.324 69.9239C148.005 69.9239 147.72 69.8568 147.451 69.7393C147.183 69.6218 146.965 69.454 146.813 69.219V69.8232H145.957V63.2101H146.881V66.0299C147.048 65.8285 147.25 65.6775 147.502 65.56C147.753 65.4593 148.022 65.3921 148.324 65.3921V65.3753ZM142.785 69.9071C142.433 69.9071 142.097 69.8232 141.812 69.6722C141.526 69.5211 141.291 69.2861 141.14 69.0008C140.972 68.7154 140.889 68.3797 140.889 67.9937V65.476H141.812V68.0608C141.812 68.363 141.896 68.5979 142.097 68.7826C142.282 68.9672 142.517 69.0511 142.802 69.0511C143.087 69.0511 143.306 68.9672 143.473 68.7826C143.658 68.5979 143.742 68.363 143.742 68.0608V65.476H144.665V67.9937C144.665 68.3797 144.581 68.7154 144.413 69.0008C144.245 69.2861 144.027 69.5211 143.742 69.6722C143.457 69.8232 143.138 69.9071 142.785 69.9071ZM137.582 69.0511C137.834 69.0511 138.052 68.984 138.253 68.8665C138.455 68.749 138.606 68.5812 138.723 68.363C138.841 68.1448 138.891 67.9098 138.891 67.6245C138.891 67.3391 138.841 67.1041 138.723 66.8859C138.606 66.6677 138.455 66.4999 138.253 66.3824C138.052 66.2649 137.834 66.1978 137.582 66.1978C137.347 66.1978 137.146 66.2481 136.944 66.3488C136.743 66.4495 136.592 66.6006 136.457 66.8188C136.34 67.037 136.273 67.2888 136.273 67.6077C136.273 67.9266 136.34 68.1783 136.457 68.3965C136.575 68.6147 136.743 68.7658 136.944 68.8665C137.146 68.9672 137.347 69.0176 137.582 69.0176V69.0511ZM137.733 65.3753C138.136 65.3753 138.505 65.476 138.824 65.6775C139.143 65.8789 139.395 66.1474 139.579 66.4831C139.764 66.8188 139.848 67.2048 139.848 67.6412C139.848 68.0776 139.764 68.4637 139.579 68.7994C139.395 69.1518 139.143 69.4204 138.824 69.605C138.505 69.8064 138.136 69.9071 137.733 69.9071C137.448 69.9071 137.162 69.8568 136.911 69.7393C136.659 69.6386 136.457 69.4707 136.273 69.2693V71.3842H135.35V65.476H136.206V66.0803C136.357 65.8621 136.575 65.6775 136.844 65.56C137.112 65.4425 137.397 65.3753 137.716 65.3753H137.733ZM132.261 66.1642C131.959 66.1642 131.691 66.2649 131.456 66.4495C131.238 66.6342 131.086 66.9027 131.003 67.2216H133.352C133.352 66.8859 133.235 66.6342 133.017 66.4495C132.798 66.2649 132.547 66.1642 132.245 66.1642H132.261ZM134.242 67.9434H131.019C131.086 68.2958 131.237 68.5812 131.489 68.7826C131.741 68.984 132.06 69.0847 132.429 69.0847C132.882 69.0847 133.302 68.9169 133.688 68.5812L134.124 69.219C133.638 69.6889 133.05 69.9071 132.396 69.9071C131.959 69.9071 131.556 69.8064 131.204 69.605C130.851 69.4036 130.566 69.1351 130.365 68.7994C130.163 68.4637 130.063 68.0776 130.063 67.6412C130.063 67.2048 130.163 66.8356 130.365 66.4999C130.566 66.1474 130.835 65.8789 131.17 65.6775C131.506 65.476 131.892 65.3753 132.295 65.3753C132.681 65.3753 133.017 65.4593 133.319 65.6271C133.621 65.7949 133.856 66.0299 134.041 66.3321C134.208 66.6342 134.309 66.9699 134.309 67.3391C134.309 67.5237 134.292 67.7084 134.242 67.9266V67.9434ZM125.9 66.7349H127.075C127.394 66.7349 127.646 66.651 127.83 66.4663C128.015 66.2817 128.099 66.0635 128.099 65.7782C128.099 65.4928 128.015 65.2578 127.83 65.09C127.646 64.9054 127.394 64.8214 127.075 64.8214H125.9V66.7349ZM128.619 69.8064L126.957 67.5573H125.883V69.8064H124.943V63.9822H127.075C127.461 63.9822 127.813 64.0494 128.099 64.2004C128.401 64.3515 128.636 64.5529 128.804 64.8382C128.972 65.1068 129.056 65.4089 129.056 65.7614C129.056 66.1474 128.955 66.4831 128.753 66.7684C128.552 67.0538 128.283 67.272 127.931 67.4063L129.677 69.8064H128.602H128.619ZM121.57 69.0008V69.8064H117.894V69.5547L120.16 66.2817H118.095V65.476H121.553V65.7446L119.27 69.0008H121.57ZM117.541 65.476L115.427 70.2932C115.242 70.7128 115.024 70.9981 114.772 71.1995C114.52 71.3842 114.201 71.4849 113.832 71.4849C113.597 71.4849 113.345 71.4513 113.11 71.401V70.6121C113.379 70.6289 113.547 70.6457 113.614 70.6457C113.832 70.6457 114.017 70.5953 114.168 70.5114C114.319 70.4275 114.453 70.2596 114.554 70.0078L114.738 69.605L113.01 65.476H114L115.242 68.6315L116.518 65.476H117.508H117.541ZM109.972 68.9001C110.324 68.9001 110.643 68.7826 110.895 68.5476C111.147 68.3126 111.281 67.9769 111.281 67.5405C111.281 67.1041 111.147 66.7684 110.895 66.5502C110.643 66.3321 110.324 66.2146 109.972 66.2146C109.619 66.2146 109.283 66.332 109.032 66.5838C108.78 66.8356 108.646 67.1545 108.646 67.5573C108.646 67.9601 108.78 68.2958 109.032 68.5476C109.283 68.7994 109.602 68.9169 109.972 68.9169V68.9001ZM112.187 65.476V69.3533C112.187 70.0414 111.986 70.5617 111.6 70.931C111.214 71.3002 110.677 71.4849 110.022 71.4849C109.586 71.4849 109.2 71.401 108.847 71.2499C108.495 71.0988 108.192 70.8974 107.941 70.6624L108.444 70.0246C108.679 70.226 108.931 70.3771 109.166 70.4778C109.401 70.5785 109.669 70.6457 109.972 70.6457C110.358 70.6457 110.677 70.5449 110.912 70.3268C111.147 70.1253 111.264 69.8064 111.264 69.4036V69.1015C111.096 69.3029 110.895 69.454 110.626 69.5547C110.374 69.6554 110.089 69.7057 109.787 69.7057C109.384 69.7057 109.032 69.605 108.713 69.4204C108.394 69.2358 108.142 68.984 107.957 68.6483C107.773 68.3126 107.689 67.9434 107.689 67.5237C107.689 67.1041 107.773 66.7349 107.957 66.3992C108.142 66.0635 108.394 65.8117 108.713 65.6271C109.032 65.4425 109.401 65.3418 109.787 65.3418C110.123 65.3418 110.408 65.4089 110.677 65.5264C110.945 65.6607 111.163 65.8285 111.314 66.0467V65.4257H112.17L112.187 65.476ZM107.202 65.476V66.2985H106.917C106.548 66.2985 106.245 66.3992 106.01 66.6174C105.775 66.8188 105.641 67.1209 105.641 67.507V69.8232H104.718V65.4928H105.574V66.0635C105.725 65.8621 105.91 65.7278 106.128 65.6103C106.346 65.5096 106.581 65.4593 106.833 65.4593C106.967 65.4593 107.085 65.4593 107.185 65.5096L107.202 65.476ZM103.896 65.476L101.781 70.2932C101.596 70.7128 101.378 70.9981 101.126 71.1995C100.874 71.3842 100.556 71.4849 100.186 71.4849C99.9513 71.4849 99.6995 71.4513 99.4645 71.401V70.6121C99.7331 70.6289 99.9009 70.6457 99.9681 70.6457C100.186 70.6457 100.371 70.5953 100.522 70.5114C100.673 70.4275 100.807 70.2596 100.908 70.0078L101.093 69.605L99.3638 65.476H100.354L101.596 68.6315L102.872 65.476H103.862H103.896ZM99.3806 69.8064H98.2225L95.5202 66.7181L97.9539 63.999H99.0953L96.6783 66.7181L99.3638 69.8064H99.3806ZM94.5635 63.9822H95.5034V69.8064H94.5635V63.9822Z" fill="#D9B96B"/>
</svg>
