<svg width="270" height="534" viewBox="0 0 270 534" fill="none" xmlns="http://www.w3.org/2000/svg">
<path fill-rule="evenodd" clip-rule="evenodd" d="M53.5846 297.073C66.6204 302.01 78.9258 308.465 89.4869 316.27C90.1533 316.762 91.1047 316.29 91.1047 315.462V308.353C91.1047 308.072 90.9867 307.804 90.7789 307.615C85.5051 302.821 79.9195 298.363 74.1453 294.26C58.5829 283.225 41.5144 274.654 24.6642 268.787C22.1141 267.916 20.5217 265.523 20.5171 262.975C20.5171 262.969 20.5122 262.964 20.5062 262.964C20.5002 262.964 20.4953 262.959 20.4953 262.953V127.877C20.4953 127.407 20.1686 127 19.7091 126.903C13.6336 125.613 7.39732 124.792 1.04975 124.425C0.478829 124.392 0 124.848 0 125.419V284.948C0 285.484 0.421581 285.925 0.956836 285.95C18.2476 286.789 36.5684 290.628 53.5846 297.073Z" fill="#1877F2"/>
<path fill-rule="evenodd" clip-rule="evenodd" d="M81.2856 284.205C90.9374 291.062 100.038 298.811 108.216 307.416C108.843 308.076 109.966 307.635 109.966 306.725V294.37C109.966 294.156 109.898 293.948 109.771 293.777C105.51 288.005 101.099 282.467 96.4988 277.139C84.1231 262.833 70.5032 250.14 55.8357 238.865C54.2455 237.646 53.4162 235.84 53.4129 233.99C53.4129 233.984 53.408 233.979 53.402 233.979C53.396 233.979 53.3911 233.974 53.3911 233.968V109.009C53.3911 108.66 53.2095 108.336 52.911 108.156C46.9342 104.543 40.7048 101.348 34.2559 98.5846C33.5999 98.3036 32.874 98.7872 32.874 99.5008V257.95C32.874 258.368 33.1333 258.741 33.5245 258.888C49.8543 265.021 66.2503 273.53 81.2856 284.205Z" fill="#1877F2"/>
<path fill-rule="evenodd" clip-rule="evenodd" d="M105.819 269.07C113.338 277.759 120.384 286.995 126.972 296.81C127.526 297.635 128.824 297.245 128.824 296.252V165.738C128.824 165.609 128.799 165.482 128.751 165.363C120.579 145.173 110.541 126.696 98.5723 110.04C89.3643 97.2171 78.9832 85.4874 67.4289 74.8694C66.7912 74.2833 65.7668 74.738 65.7668 75.604V230.506C65.7668 230.813 65.9079 231.103 66.149 231.293C80.474 242.577 93.7468 255.106 105.819 269.07Z" fill="#1877F2"/>
<path fill-rule="evenodd" clip-rule="evenodd" d="M216.415 297.073C203.38 302.01 191.074 308.465 180.513 316.27C179.847 316.762 178.895 316.291 178.895 315.462V308.353C178.895 308.072 179.013 307.804 179.221 307.616C184.495 302.822 190.081 298.363 195.876 294.26C211.417 283.225 228.507 274.654 245.336 268.787C247.886 267.916 249.478 265.523 249.483 262.975C249.483 262.969 249.488 262.964 249.494 262.964C249.5 262.964 249.505 262.959 249.505 262.953V127.877C249.505 127.407 249.831 127.001 250.291 126.903C256.367 125.613 262.62 124.793 268.95 124.425C269.521 124.392 270 124.848 270 125.42V284.949C270 285.484 269.578 285.925 269.043 285.951C251.752 286.79 233.432 290.628 216.415 297.073Z" fill="#1877F2"/>
<path fill-rule="evenodd" clip-rule="evenodd" d="M188.718 284.205C179.066 291.062 169.984 298.811 161.791 307.417C161.162 308.077 160.041 307.635 160.042 306.724L160.06 294.368C160.06 294.155 160.128 293.949 160.253 293.778C164.494 288.006 168.904 282.467 173.505 277.139C185.881 262.833 199.501 250.14 214.168 238.865C215.759 237.646 216.588 235.84 216.591 233.99C216.591 233.984 216.596 233.979 216.602 233.979C216.608 233.979 216.613 233.974 216.613 233.968V109.009C216.613 108.66 216.795 108.336 217.093 108.156C223.069 104.544 229.315 101.349 235.747 98.5866C236.403 98.3048 237.13 98.7885 237.13 99.5026V257.95C237.13 258.368 236.871 258.741 236.48 258.888C220.15 265.021 203.754 273.53 188.718 284.205Z" fill="#1877F2"/>
<path fill-rule="evenodd" clip-rule="evenodd" d="M164.179 269.07C156.662 277.757 149.618 286.989 143.049 296.8C142.495 297.627 141.195 297.237 141.195 296.243V165.738C141.195 165.609 141.22 165.482 141.268 165.363C149.44 145.173 159.456 126.696 171.425 110.04C180.633 97.2171 191.014 85.4874 202.569 74.8694C203.206 74.2833 204.231 74.738 204.231 75.604V230.506C204.231 230.813 204.09 231.103 203.849 231.293C189.524 242.577 176.251 255.106 164.179 269.07Z" fill="#1877F2"/>
<path d="M108.169 330.085C110.407 329.166 115.031 327.659 118.445 326.738C126.706 324.507 140.995 324.514 150.484 326.755C161.684 329.4 163.125 330.482 157.899 332.323C155.572 333.141 149.072 336.119 143.455 338.94L133.243 344.067L125.321 340.103C120.963 337.924 114.406 335.153 110.749 333.948L104.099 331.756L108.169 330.085Z" fill="#1877F2"/>
<path d="M140.775 348.196C139.223 346.641 145.538 343.161 159.108 338.093C168.828 334.464 171.781 333.874 170.593 335.801C170.182 336.467 169.24 337.012 168.5 337.012C167.759 337.012 161.511 339.821 154.614 343.254C145.679 347.702 141.7 349.123 140.775 348.196Z" fill="#1877F2"/>
<path d="M104.099 339.98C100.775 338.793 97.5371 337.368 96.906 336.812C93.7941 334.073 107.871 338.155 119.502 343.363C125.902 346.23 127.408 347.378 126.387 348.611C125.338 349.877 123.601 349.393 117.612 346.163C113.505 343.948 107.424 341.167 104.099 339.98Z" fill="#1877F2"/>
<path d="M149.244 354.257C147.777 352.788 153.184 349.554 166.362 344.017C177.073 339.517 178.34 339.866 168.78 344.683C164.458 346.861 158.587 350.199 155.735 352.103C152.024 354.578 150.176 355.191 149.244 354.257Z" fill="#1877F2"/>
<path d="M110.514 351.393C107.277 349.312 101.517 346.328 97.7149 344.761C88.6657 341.033 91.5551 341.021 101.432 344.745C111.637 348.594 119.212 352.532 119.212 353.99C119.212 356.071 116.562 355.279 110.514 351.393Z" fill="#1877F2"/>
<path d="M158.997 356.467C160.886 355.118 166.429 352.097 171.315 349.752C176.2 347.407 181.124 345.489 182.258 345.489C187.466 345.489 199.014 365.656 202.022 380.002C204.246 390.619 204.262 397.184 202.084 407.474C200.408 415.401 196.748 424.162 196.616 420.569C196.476 416.789 186.849 397.127 180.341 387.329C176.615 381.72 169.515 373.032 164.563 368.024L155.559 358.918L158.997 356.467Z" fill="#1877F2"/>
<path d="M67.7262 378.912C70.0825 368.904 75.3851 357.466 80.5559 351.241C82.6305 348.744 85.0835 346.7 86.0084 346.7C88.8301 346.7 100.111 351.47 106.792 355.488L113.112 359.288L104.845 367.829C91.9674 381.134 80.6792 399.63 74.5316 417.503L72.4618 423.519L69.7815 415.687C66.07 404.841 65.2164 389.573 67.7262 378.912Z" fill="#1877F2"/>
<path d="M132.247 355.035C130.406 354.048 130.228 353.445 131.372 352.064C133.155 349.912 134.259 349.881 135.961 351.936C137.979 354.371 135.254 356.647 132.247 355.035Z" fill="#1877F2"/>
<path d="M123.994 361.204C121.996 360.132 121.766 359.498 122.887 358.145C123.927 356.89 124.908 356.763 126.592 357.666C127.852 358.342 128.883 359.388 128.883 359.991C128.883 361.994 126.549 362.572 123.994 361.204Z" fill="#1877F2"/>
<path d="M140.355 361.22C138.737 359.874 138.764 359.529 140.607 358.18C142.683 356.659 145.809 357.027 145.809 358.791C145.809 359.303 144.993 360.402 143.996 361.231C142.548 362.435 141.813 362.433 140.355 361.22Z" fill="#1877F2"/>
<path d="M81.6984 413.756C88.436 396.815 97.3461 383.142 110.605 369.403C117.167 362.603 117.38 362.492 119.584 364.7C121.789 366.907 121.656 367.191 114.005 376.684C101.749 391.89 91.676 410.496 85.3724 429.572L82.5966 437.97L79.6238 434.508C76.0065 430.296 76.3039 427.318 81.6984 413.756Z" fill="#1877F2"/>
<path d="M153.019 374.13C146.851 367.37 146.758 367.159 148.903 364.784C151.075 362.381 151.177 362.434 158.807 369.967C173.047 384.028 183.817 400.704 190.499 419.044L194.018 428.705L187.783 437.896L183.916 427.114C176.677 406.929 165.572 387.887 153.019 374.13Z" fill="#1877F2"/>
<path d="M132.234 368.852C130.098 366.917 130.079 366.658 131.958 365.282C133.504 364.15 134.514 364.129 136.221 365.197C138.292 366.493 138.312 366.76 136.498 368.769C134.639 370.825 134.414 370.828 132.234 368.852Z" fill="#1877F2"/>
<path d="M90.8418 430.308C97.9373 409.889 106.341 394.545 118.891 379.093C122.544 374.598 125.905 370.919 126.36 370.919C127.682 370.919 130.092 373.694 130.092 375.215C130.092 375.979 127.133 381.033 123.514 386.448C119.897 391.862 114.667 401.073 111.894 406.917C106.75 417.754 97.4997 443.738 97.4682 447.442C97.438 450.93 95.8119 450.754 91.0534 446.747L86.469 442.889L90.8418 430.308Z" fill="#1877F2"/>
<path d="M145.286 385C138.635 375.728 138.508 375.401 140.618 373.061C142.758 370.688 142.866 370.744 148.627 377.145C161.086 390.989 172.772 411.334 179.733 431.301L183.638 442.503L179.533 446.019C177.276 447.952 175.1 449.557 174.699 449.583C174.299 449.611 171.937 443.229 169.454 435.404C163.742 417.405 154.088 397.273 145.286 385Z" fill="#1877F2"/>
<path d="M106.213 436.312C111.414 419.765 118.989 403.158 126.838 391.098C130.593 385.327 134.149 380.607 134.741 380.607C136.51 380.607 147.221 397.348 153.333 409.666C156.473 415.996 161.337 428.136 164.141 436.644C170.016 454.471 170.102 454.129 158.791 458.111C141.469 464.209 125.336 463.767 107.435 456.704C100.141 453.827 100.232 455.339 106.213 436.312Z" fill="#1877F2"/>
<path d="M23.2889 42.0434H10.9615L24.8504 0H40.4651L54.354 42.0434H42.0266L32.8221 11.5784H32.4934L23.2889 42.0434ZM20.9878 25.4559H44.1633V33.996H20.9878V25.4559Z" fill="#1877F2"/>
<path d="M88.571 0V9.19699H70.4086V42.0434H58.9852V0H88.571Z" fill="#1877F2"/>
<path d="M99.4892 42.6182V33.7497H101.544C102.749 33.7497 103.701 33.6539 104.4 33.4622C105.112 33.257 105.66 32.9011 106.043 32.3947C106.441 31.8747 106.776 31.1493 107.05 30.2187L107.461 28.9869L91.6819 0H103.352L112.145 17.0801L118.884 0H130.39L115.926 32.8464C115.131 34.5708 114.186 36.1789 113.09 37.6707C111.995 39.1488 110.632 40.3463 109.002 41.2633C107.372 42.1665 105.352 42.6182 102.941 42.6182H99.4892Z" fill="#1877F2"/>
<path d="M173.293 0V42.0434H162.034V9.03275H147.816V42.0434H136.557V0H173.293Z" fill="#1877F2"/>
<path d="M207.109 42.0434L194.206 25.0454H192.604V42.0434H181.18V0H192.604V15.8484H194.083L206.164 0H220.546L204.52 20.2005L221.45 42.0434H207.109Z" fill="#1877F2"/>
<path d="M225.095 42.0434V0H243.257C246.38 0 249.113 0.61587 251.455 1.84761C253.797 3.07935 255.619 4.81063 256.92 7.04144C258.222 9.27226 258.872 11.8794 258.872 14.863C258.872 17.8739 258.201 20.4811 256.859 22.6845C255.53 24.888 253.66 26.585 251.25 27.7757C248.853 28.9664 246.052 29.5617 242.846 29.5617H231.998V20.6932H240.545C241.888 20.6932 243.031 20.4606 243.977 19.9952C244.935 19.5162 245.668 18.8388 246.175 17.9629C246.695 17.087 246.956 16.0537 246.956 14.863C246.956 13.6586 246.695 12.6322 246.175 11.7836C245.668 10.9214 244.935 10.2645 243.977 9.81286C243.031 9.34753 241.888 9.11487 240.545 9.11487H236.518V42.0434H225.095Z" fill="#1877F2"/>
<path d="M80.4572 491.382V533.425H71.5609V499.819H71.3144L61.6784 505.855V497.972L72.0951 491.382H80.4572Z" fill="#1877F2"/>
<path d="M106.261 490.807C108.425 490.807 110.507 491.17 112.507 491.895C114.52 492.62 116.314 493.777 117.89 495.364C119.478 496.952 120.732 499.06 121.649 501.687C122.581 504.301 123.053 507.511 123.067 511.316C123.067 514.888 122.663 518.076 121.855 520.882C121.061 523.674 119.917 526.048 118.424 528.006C116.931 529.963 115.13 531.454 113.02 532.481C110.911 533.494 108.555 534 105.953 534C103.145 534 100.665 533.459 98.515 532.378C96.3646 531.283 94.6319 529.798 93.317 527.923C92.0157 526.035 91.2281 523.913 90.9542 521.559H99.7272C100.07 523.092 100.789 524.283 101.885 525.132C102.98 525.966 104.336 526.384 105.953 526.384C108.692 526.384 110.774 525.193 112.198 522.812C113.623 520.417 114.342 517.139 114.356 512.978H114.068C113.438 514.21 112.589 515.271 111.52 516.16C110.452 517.036 109.226 517.714 107.843 518.193C106.473 518.672 105.014 518.911 103.467 518.911C100.987 518.911 98.7753 518.33 96.8303 517.166C94.8853 516.003 93.3512 514.402 92.228 512.362C91.1049 510.323 90.5433 507.997 90.5433 505.383C90.5296 502.563 91.1802 500.052 92.4951 497.848C93.8101 495.645 95.6455 493.921 98.0014 492.675C100.371 491.416 103.124 490.793 106.261 490.807ZM106.322 497.787C104.939 497.787 103.706 498.115 102.624 498.772C101.556 499.429 100.707 500.312 100.076 501.421C99.4601 502.529 99.1588 503.768 99.1725 505.136C99.1725 506.519 99.4738 507.764 100.076 508.873C100.693 509.967 101.528 510.843 102.583 511.5C103.651 512.144 104.87 512.465 106.24 512.465C107.267 512.465 108.219 512.274 109.096 511.89C109.973 511.507 110.733 510.98 111.377 510.31C112.034 509.625 112.548 508.838 112.918 507.949C113.287 507.059 113.472 506.115 113.472 505.116C113.459 503.788 113.144 502.57 112.527 501.462C111.911 500.353 111.062 499.463 109.98 498.793C108.897 498.122 107.678 497.787 106.322 497.787Z" fill="#1877F2"/>
<path d="M145.034 490.807C147.198 490.807 149.28 491.17 151.28 491.895C153.293 492.62 155.087 493.777 156.663 495.364C158.252 496.952 159.505 499.06 160.423 501.687C161.354 504.301 161.826 507.511 161.84 511.316C161.84 514.888 161.436 518.076 160.628 520.882C159.834 523.674 158.69 526.048 157.197 528.006C155.704 529.963 153.903 531.454 151.793 532.481C149.684 533.494 147.328 534 144.726 534C141.918 534 139.439 533.459 137.288 532.378C135.138 531.283 133.405 529.798 132.09 527.923C130.789 526.035 130.001 523.913 129.727 521.559H138.5C138.843 523.092 139.562 524.283 140.658 525.132C141.753 525.966 143.109 526.384 144.726 526.384C147.465 526.384 149.547 525.193 150.971 522.812C152.396 520.417 153.115 517.139 153.129 512.978H152.841C152.211 514.21 151.362 515.271 150.293 516.16C149.225 517.036 147.999 517.714 146.616 518.193C145.246 518.672 143.787 518.911 142.24 518.911C139.76 518.911 137.548 518.33 135.603 517.166C133.658 516.003 132.124 514.402 131.001 512.362C129.878 510.323 129.316 507.997 129.316 505.383C129.303 502.563 129.953 500.052 131.268 497.848C132.583 495.645 134.419 493.921 136.774 492.675C139.144 491.416 141.897 490.793 145.034 490.807ZM145.095 497.787C143.712 497.787 142.479 498.115 141.397 498.772C140.329 499.429 139.48 500.312 138.85 501.421C138.233 502.529 137.932 503.768 137.946 505.136C137.946 506.519 138.247 507.764 138.85 508.873C139.466 509.967 140.301 510.843 141.356 511.5C142.424 512.144 143.644 512.465 145.013 512.465C146.041 512.465 146.992 512.274 147.869 511.89C148.746 511.507 149.506 510.98 150.15 510.31C150.807 509.625 151.321 508.838 151.691 507.949C152.06 507.059 152.245 506.115 152.245 505.116C152.232 503.788 151.917 502.57 151.3 501.462C150.684 500.353 149.835 499.463 148.753 498.793C147.67 498.122 146.451 497.787 145.095 497.787Z" fill="#1877F2"/>
<path d="M168.582 533.425V527.02L183.56 513.163C184.834 511.931 185.902 510.823 186.765 509.837C187.642 508.852 188.306 507.887 188.758 506.943C189.21 505.985 189.436 504.952 189.436 503.843C189.436 502.611 189.156 501.551 188.594 500.661C188.032 499.758 187.265 499.067 186.293 498.587C185.32 498.095 184.218 497.848 182.985 497.848C181.697 497.848 180.574 498.109 179.616 498.629C178.657 499.149 177.917 499.895 177.397 500.866C176.876 501.838 176.616 502.994 176.616 504.336H168.172C168.172 501.585 168.795 499.197 170.041 497.171C171.288 495.145 173.034 493.578 175.28 492.47C177.527 491.361 180.115 490.807 183.047 490.807C186.06 490.807 188.683 491.341 190.916 492.408C193.162 493.462 194.908 494.927 196.155 496.802C197.401 498.676 198.024 500.825 198.024 503.248C198.024 504.835 197.709 506.402 197.079 507.949C196.463 509.495 195.36 511.213 193.771 513.102C192.183 514.976 189.943 517.228 187.053 519.856L180.91 525.871V526.158H198.579V533.425H168.582Z" fill="#1877F2"/>
</svg>
